<?xml version="1.0" encoding="UTF-8"?>
<svg width="64px" height="64px" viewBox="0 0 64 64" version="1.1" xmlns="http://www.w3.org/2000/svg" xmlns:xlink="http://www.w3.org/1999/xlink">
    <title>Demo_Games/AceyDeucy/v3/FaceCards_4</title>
    <g id="Demo_Games/AceyDeucy/v3/FaceCards_4" stroke="none" stroke-width="1" fill="none" fill-rule="evenodd">
        <path d="M9.20849609,9.63427734 L7.95507813,9.63427734 L7.95507813,12 L4.734375,12 L4.734375,9.63427734 L0.517578125,9.63427734 L0.517578125,8.23144531 L5.796875,0.669433594 L7.95507813,0.669433594 L7.95507813,8.35595703 L9.20849609,8.35595703 L9.20849609,9.63427734 Z M1.98681641,8.35595703 L4.78417969,8.35595703 L4.78417969,4.02294922 L1.98681641,8.35595703 Z" id="Shape" fill="#186FB5" fill-rule="nonzero"></path>
        <path d="M46.8583984,45.5859375 L42.5820313,45.5859375 L42.5820313,53.6572266 L31.59375,53.6572266 L31.59375,45.5859375 L17.2070312,45.5859375 L17.2070312,40.7998047 L35.21875,15 L42.5820313,15 L42.5820313,41.2246094 L46.8583984,41.2246094 L46.8583984,45.5859375 Z M22.2197266,41.2246094 L31.7636719,41.2246094 L31.7636719,26.4414062 L22.2197266,41.2246094 Z" id="Shape" fill="#186FB5" fill-rule="nonzero"></path>
    </g>
</svg>