<?xml version="1.0" encoding="UTF-8"?>
<svg width="64px" height="64px" viewBox="0 0 64 64" version="1.1" xmlns="http://www.w3.org/2000/svg" xmlns:xlink="http://www.w3.org/1999/xlink">
    <title>Demo_Games/AceyDeucy/v3/FaceCards_Queen</title>
    <g id="Demo_Games/AceyDeucy/v3/FaceCards_Queen" stroke="none" stroke-width="1" fill="none" fill-rule="evenodd">
        <g id="FaceCards_Queen" transform="translate(18, 15)" fill="#186FB5" fill-rule="nonzero">
            <path d="M14.1763224,40 C12.5541562,40 10.861461,39.5138889 9.16876574,38.5416667 C7.61712846,37.6388889 6.06549118,36.3888889 4.72544081,34.7916667 C1.90428212,31.5277778 0.352644836,27.4305556 0.352644836,23.6111111 L1.05793451,23.6111111 C1.05793451,31.1805556 7.82871537,39.2361111 14.1763224,39.2361111 C20.5239295,39.2361111 27.2947103,31.1805556 27.2947103,23.6111111 L28,23.6111111 C28,27.4305556 26.3778338,31.5277778 23.627204,34.7916667 C22.2871537,36.3194444 20.8060453,37.6388889 19.1838791,38.5416667 C17.4911839,39.5833333 15.7984887,40 14.1763224,40 Z" id="Path"></path>
            <path d="M16.5037783,30.5555556 C14.5994962,30.5555556 14.5994962,31.8055556 14.5994962,31.8055556 C14.5994962,31.8055556 14.5994962,30.5555556 12.6952141,30.5555556 C10.790932,30.5555556 8.88664987,31.1805556 8.88664987,31.1805556 C8.88664987,31.1805556 12.0604534,33.6805556 14.5994962,33.6805556 C17.138539,33.6805556 20.3123426,31.1805556 20.3123426,31.1805556 C20.3123426,31.1805556 18.4080605,30.5555556 16.5037783,30.5555556 Z" id="Path"></path>
            <path d="M16.9269521,27.7777778 C15.7984887,28.8888889 14.6700252,28.9583333 14.6700252,28.9583333 C14.6700252,28.9583333 13.5415617,28.9583333 12.4130982,27.7777778 L11.9193955,28.2638889 C13.2594458,29.5833333 14.6700252,29.5833333 14.7405542,29.5833333 C14.8110831,29.5833333 16.1511335,29.5833333 17.5617128,28.2638889 L16.9269521,27.7777778 Z" id="Path"></path>
            <ellipse id="Oval" cx="8.53400504" cy="25.2777778" rx="1.62216625" ry="1.59722222"></ellipse>
            <path d="M12.6952141,21.875 C12.6952141,21.875 10.790932,21.25 8.25188917,21.25 C5.71284635,21.25 3.80856423,21.875 3.80856423,21.875 C3.80856423,21.875 5.71284635,18.75 8.88664987,18.75 C12.0604534,18.75 12.6952141,21.875 12.6952141,21.875 Z" id="Path"></path>
            <path d="M16.5037783,21.875 C16.5037783,21.875 18.4080605,21.25 20.9471033,21.25 C23.4861461,21.25 25.3904282,21.875 25.3904282,21.875 C25.3904282,21.875 23.4861461,18.75 20.3123426,18.75 C17.138539,18.75 16.5037783,21.875 16.5037783,21.875 Z" id="Path"></path>
            <path d="M27.929471,10.625 L27.929471,1.875 L22.8513854,4.375 L20.9471033,0.625 L17.7732997,3.75 L13.9647355,0 L10.1561713,3.75 L6.98236776,0.625 L5.07808564,4.375 L0,1.875 L0,11.25 C0,11.25 0,11.25 0,11.25 L0.282115869,24.375 C0.282115869,24.375 13.9647355,18.125 13.9647355,13.125 C13.9647355,18.125 28,24.375 28,24.375 L27.929471,10.625 Z" id="Path"></path>
            <ellipse id="Oval" cx="20.1007557" cy="25.2777778" rx="1.62216625" ry="1.59722222"></ellipse>
        </g>
        <g id="Q" transform="translate(-0.0261, 0.5034)" fill="#186FB5" fill-rule="nonzero">
            <path d="M9.07275391,11.1313477 L9.95263672,11.4550781 C9.96923828,11.6598307 9.97753906,11.8092448 9.97753906,11.9033203 C9.97753906,13.28125 9.3273112,13.9702148 8.02685547,13.9702148 C6.74853516,13.9702148 5.96549479,13.2093099 5.67773437,11.6875 C5.46744792,11.7041016 5.26546224,11.7124023 5.07177734,11.7124023 C1.69059245,11.7124023 0,9.75341797 0,5.83544922 C0,1.94514974 1.68505859,0 5.05517578,0 C8.38102214,0 10.0439453,1.98942057 10.0439453,5.96826172 C10.0439453,8.58577474 9.18619792,10.3289388 7.47070312,11.1977539 C7.73632813,11.8950195 8.06005859,12.2436523 8.44189453,12.2436523 C8.91227214,12.2436523 9.13085937,11.9448242 9.09765625,11.347168 C9.09765625,11.2973633 9.08935547,11.2254232 9.07275391,11.1313477 Z M3.66894531,8.99804687 C4.0563151,8.44466146 4.4851888,8.16796875 4.95556641,8.16796875 C5.45914714,8.16796875 5.88802083,8.50276693 6.2421875,9.17236328 C6.47460938,8.23160807 6.59082031,7.0694987 6.59082031,5.68603516 C6.59082031,3.84326172 6.48152669,2.58569336 6.26293945,1.91333008 C6.04435221,1.2409668 5.63346354,0.904785156 5.03027344,0.904785156 C4.43261719,0.904785156 4.02034505,1.24788411 3.79345703,1.93408203 C3.56656901,2.62027995 3.453125,3.87093099 3.453125,5.68603516 C3.453125,7.16910807 3.5250651,8.27311198 3.66894531,8.99804687 Z M5.52832031,10.6333008 C5.40657552,9.80322266 5.14095052,9.38818359 4.73144531,9.38818359 C4.41601562,9.38818359 4.13378906,9.59016927 3.88476562,9.99414062 C4.11165365,10.5364583 4.47688802,10.8076172 4.98046875,10.8076172 C5.15201823,10.8076172 5.33463542,10.7495117 5.52832031,10.6333008 Z" id="Shape"></path>
        </g>
        <g id="12" transform="translate(57.7353, 58.2627)" fill="#186FB5" fill-rule="nonzero">
            <path d="M2.27636719,0.0717773438 L2.27636719,4.73730469 L0.970703125,4.73730469 L0.970703125,1.22363281 C0.622070312,1.3922526 0.298502604,1.48681641 -2.84217094e-14,1.50732422 L-2.84217094e-14,0.892089844 C0.685872396,0.823730469 1.16894531,0.550292969 1.44921875,0.0717773438 L2.27636719,0.0717773438 Z" id="Path"></path>
            <path d="M6.61357422,3.61621094 L6.61357422,4.73730469 L3.13408203,4.73730469 L3.13408203,4.07763672 C3.41891276,3.76318359 3.74589844,3.42822266 4.11503906,3.07275391 C4.9421875,2.2820638 5.35576172,1.67708333 5.35576172,1.2578125 C5.35576172,0.699544271 5.13473307,0.420410156 4.69267578,0.420410156 C4.15491536,0.420410156 3.88603516,0.75764974 3.88603516,1.43212891 C3.88603516,1.59163411 3.92477214,1.81608073 4.00224609,2.10546875 L3.28105469,1.93457031 C3.22636719,1.7203776 3.19902344,1.54833984 3.19902344,1.41845703 C3.19902344,0.47281901 3.78349609,0 4.95244141,0 C5.44690755,0 5.85364583,0.121907552 6.17265625,0.365722656 C6.49166667,0.60953776 6.65117187,0.92171224 6.65117187,1.30224609 C6.65117187,1.73746745 6.33557943,2.21142578 5.70439453,2.72412109 L5.28056641,3.06591797 L4.81230469,3.45898437 C4.78268229,3.48404948 4.70976562,3.53645833 4.59355469,3.61621094 L6.61357422,3.61621094 Z" id="Path"></path>
        </g>
    </g>
</svg>