<?xml version="1.0" encoding="utf-8"?>
<!-- Generator: Adobe Illustrator 17.1.0, SVG Export Plug-In . SVG Version: 6.00 Build 0)  -->
<!DOCTYPE svg PUBLIC "-//W3C//DTD SVG 1.1//EN" "http://www.w3.org/Graphics/SVG/1.1/DTD/svg11.dtd">
<svg version="1.1" id="Layer_1" xmlns="http://www.w3.org/2000/svg" xmlns:xlink="http://www.w3.org/1999/xlink" x="0px" y="0px"
	 viewBox="0 0 64 64" enable-background="new 0 0 64 64" xml:space="preserve">
<g id="king">
	<rect x="19.4" y="23" fill="#186FB5" width="9" height="2.7"/>
	<circle fill="#186FB5" cx="23" cy="28.4" r="1.8"/>
	<path fill="#186FB5" d="M42.8,8.6L32,2.3L21.2,8.6l-8.1-6.3v59.4H32h18.9V2.3L42.8,8.6z M32,47.3h-8.1c0,0,1.8-0.9,4.5-2.7
		c2.7-1.8,3.6-4.5,3.6-4.5s0.9,2.7,3.6,4.5c2.7,1.8,4.5,2.7,4.5,2.7H32z M46.4,41.9c0,0-3.6-5.4-7.2-6.3c-3.6-0.9-3.6-0.9-3.6-0.9
		H32h-3.6c0,0,0,0-3.6,0.9c-3.6,0.9-7.2,6.3-7.2,6.3V18.5H32h14.4V41.9z"/>
	<rect x="35.6" y="23" fill="#186FB5" width="9" height="2.7"/>
	<polygon fill="#186FB5" points="35.6,29.3 35.6,26.6 34.7,26.6 34.7,30.2 37.4,31.1 37.4,33.8 32,33.8 26.6,33.8 26.6,31.1 
		29.3,30.2 29.3,26.6 28.4,26.6 28.4,29.3 25.7,30.2 25.7,34.7 32,34.7 38.3,34.7 38.3,30.2 	"/>
	<circle fill="#186FB5" cx="41" cy="28.4" r="1.8"/>
</g>
</svg>
