<?xml version="1.0" encoding="UTF-8"?>
<svg width="64px" height="64px" viewBox="0 0 64 64" version="1.1" xmlns="http://www.w3.org/2000/svg" xmlns:xlink="http://www.w3.org/1999/xlink">
    <title>Demo_Games/AceyDeucy/FaceCards_4</title>
    <g id="Demo_Games/AceyDeucy/FaceCards_4" stroke="none" stroke-width="1" fill="none" fill-rule="evenodd">
        <path d="M9.20849609,9.63427734 L7.95507813,9.63427734 L7.95507813,12 L4.734375,12 L4.734375,9.63427734 L0.517578125,9.63427734 L0.517578125,8.23144531 L5.796875,0.669433594 L7.95507813,0.669433594 L7.95507813,8.35595703 L9.20849609,8.35595703 L9.20849609,9.63427734 Z M1.98681641,8.35595703 L4.78417969,8.35595703 L4.78417969,4.02294922 L1.98681641,8.35595703 Z" id="Shape" fill="#186FB5" fill-rule="nonzero"></path>
        <path d="M46.8583984,48.9287109 L42.5820313,48.9287109 L42.5820313,57 L31.59375,57 L31.59375,48.9287109 L17.2070312,48.9287109 L17.2070312,44.1425781 L35.21875,18.3427734 L42.5820313,18.3427734 L42.5820313,44.5673828 L46.8583984,44.5673828 L46.8583984,48.9287109 Z M22.2197266,44.5673828 L31.7636719,44.5673828 L31.7636719,29.7841797 L22.2197266,44.5673828 Z" id="Shape" fill="#186FB5" fill-rule="nonzero"></path>
        <path d="M63.8966797,62.5258789 L63.3805664,62.5258789 L63.3805664,63.5 L62.0543945,63.5 L62.0543945,62.5258789 L60.3180664,62.5258789 L60.3180664,61.9482422 L62.4918945,58.8344727 L63.3805664,58.8344727 L63.3805664,61.9995117 L63.8966797,61.9995117 L63.8966797,62.5258789 Z M60.9230469,61.9995117 L62.0749023,61.9995117 L62.0749023,60.215332 L60.9230469,61.9995117 Z" id="Shape" fill="#186FB5" fill-rule="nonzero"></path>
    </g>
</svg>