<?xml version="1.0" encoding="UTF-8"?>
<svg width="64px" height="64px" viewBox="0 0 64 64" version="1.1" xmlns="http://www.w3.org/2000/svg" xmlns:xlink="http://www.w3.org/1999/xlink">
    <title>Demo_Games/AceyDeucy/FaceCards_8</title>
    <g id="Demo_Games/AceyDeucy/FaceCards_8" stroke="none" stroke-width="1" fill="none" fill-rule="evenodd">
        <path d="M2.17358398,6.60449219 C1.16088867,5.89615885 0.654541016,5.00797526 0.654541016,3.93994141 C0.654541016,2.91617839 1.04882812,2.08886719 1.83740234,1.45800781 C2.62597656,0.827148438 3.66219076,0.51171875 4.94604492,0.51171875 C6.06941732,0.51171875 6.97835286,0.756591797 7.67285156,1.24633789 C8.36735026,1.73608398 8.71459961,2.3766276 8.71459961,3.16796875 C8.71459961,4.04785156 8.25252279,4.75341797 7.32836914,5.28466797 C8.83911133,6.08154297 9.59448242,7.1468099 9.59448242,8.48046875 C9.59448242,9.59277344 9.16145833,10.4934082 8.29541016,11.182373 C7.42936198,11.8713379 6.29630534,12.2158203 4.89624023,12.2158203 C3.60131836,12.2158203 2.52775065,11.904541 1.67553711,11.2819824 C0.823323568,10.6594238 0.397216797,9.87776693 0.397216797,8.93701172 C0.397216797,7.9132487 0.989339193,7.13574219 2.17358398,6.60449219 Z M2.97045898,7.07763672 C2.21785482,7.54248047 1.84155273,8.16227214 1.84155273,8.93701172 C1.84155273,9.59000651 2.13484701,10.1489258 2.72143555,10.6137695 C3.30802409,11.0786133 4.00805664,11.3110352 4.8215332,11.3110352 C5.45792643,11.3110352 5.99747721,11.1394857 6.44018555,10.7963867 C6.88289388,10.4532878 7.10424805,10.0382487 7.10424805,9.55126953 C7.10424805,8.75439453 6.47338867,8.16780599 5.21166992,7.79150391 C4.59187826,7.60888672 3.84480794,7.37093099 2.97045898,7.07763672 Z M6.55639648,4.93603516 C7.03230794,4.52099609 7.27026367,4.02848307 7.27026367,3.45849609 C7.27026367,2.09716797 6.47062174,1.41650391 4.87133789,1.41650391 C3.51554362,1.41650391 2.83764648,1.90625 2.83764648,2.88574219 C2.83764648,3.47786458 3.44637044,3.96484375 4.66381836,4.34667969 L5.95043945,4.74511719 C6.0777181,4.78938802 6.27970378,4.85302734 6.55639648,4.93603516 Z" id="Shape" fill="#186FB5" fill-rule="nonzero"></path>
        <path d="M22.8569336,39.5917969 C19.4018555,37.1751302 17.6743164,34.1448568 17.6743164,30.5009766 C17.6743164,27.008138 19.0195312,24.1855469 21.7099609,22.0332031 C24.4003906,19.8808594 27.9357096,18.8046875 32.315918,18.8046875 C36.1486003,18.8046875 39.2496745,19.6401367 41.6191406,21.3110352 C43.9886068,22.9819336 45.1733398,25.1673177 45.1733398,27.8671875 C45.1733398,30.8691406 43.5968424,33.2763672 40.4438477,35.0888672 C45.5981445,37.8076172 48.175293,41.4420573 48.175293,45.9921875 C48.175293,49.7871094 46.6979167,52.8598633 43.7431641,55.2104492 C40.7884115,57.5610352 36.9226888,58.7363281 32.1459961,58.7363281 C27.7280273,58.7363281 24.0652669,57.6743164 21.1577148,55.550293 C18.2501628,53.4262695 16.7963867,50.7594401 16.7963867,47.5498047 C16.7963867,44.0569661 18.816569,41.4042969 22.8569336,39.5917969 Z M25.5756836,41.2060547 C23.0079753,42.7919922 21.7241211,44.9065755 21.7241211,47.5498047 C21.7241211,49.7776693 22.7247721,51.6845703 24.7260742,53.2705078 C26.7273763,54.8564453 29.1157227,55.6494141 31.8911133,55.6494141 C34.0623372,55.6494141 35.9031576,55.0641276 37.4135742,53.8935547 C38.9239909,52.7229818 39.6791992,51.3069661 39.6791992,49.6455078 C39.6791992,46.9267578 37.5268555,44.9254557 33.222168,43.6416016 C31.1075846,43.0185547 28.5587565,42.2067057 25.5756836,41.2060547 Z M37.8100586,33.8994141 C39.4337565,32.4833984 40.2456055,30.8030599 40.2456055,28.8583984 C40.2456055,24.2138672 37.5174154,21.8916016 32.0610352,21.8916016 C27.4353841,21.8916016 25.1225586,23.5625 25.1225586,26.9042969 C25.1225586,28.9244792 27.1993815,30.5859375 31.3530273,31.8886719 L35.7426758,33.2480469 C36.1769206,33.3990885 36.8660482,33.6162109 37.8100586,33.8994141 Z" id="Shape" fill="#186FB5" fill-rule="nonzero"></path>
        <path d="M60.9982422,61.2783203 C60.58125,60.9866536 60.3727539,60.620931 60.3727539,60.1811523 C60.3727539,59.7596029 60.5351074,59.4189453 60.8598145,59.1591797 C61.1845215,58.8994141 61.6111979,58.7695312 62.1398437,58.7695312 C62.6024089,58.7695312 62.9766764,58.8703613 63.2626465,59.0720215 C63.5486165,59.2736816 63.6916016,59.5374349 63.6916016,59.8632812 C63.6916016,60.2255859 63.5013346,60.5161133 63.1208008,60.7348633 C63.7428711,61.0629883 64.0539062,61.5016276 64.0539062,62.0507812 C64.0539062,62.5087891 63.8756022,62.8796387 63.5189941,63.1633301 C63.1623861,63.4470215 62.6958333,63.5888672 62.1193359,63.5888672 C61.5861328,63.5888672 61.1440755,63.4606934 60.7931641,63.2043457 C60.4422526,62.947998 60.2667969,62.6261393 60.2667969,62.2387695 C60.2667969,61.8172201 60.510612,61.4970703 60.9982422,61.2783203 Z M61.3263672,61.4731445 C61.0164714,61.6645508 60.8615234,61.9197591 60.8615234,62.2387695 C60.8615234,62.5076497 60.9822917,62.737793 61.2238281,62.9291992 C61.4653646,63.1206055 61.7536133,63.2163086 62.0885742,63.2163086 C62.3506185,63.2163086 62.5727865,63.1456706 62.7550781,63.0043945 C62.9373698,62.8631185 63.0285156,62.6922201 63.0285156,62.4916992 C63.0285156,62.1635742 62.76875,61.9220378 62.2492187,61.7670898 C61.9940104,61.6918945 61.6863932,61.5939128 61.3263672,61.4731445 Z M62.8029297,60.5913086 C62.9988932,60.4204102 63.096875,60.2176107 63.096875,59.9829102 C63.096875,59.4223633 62.7676107,59.1420898 62.109082,59.1420898 C61.5508138,59.1420898 61.2716797,59.34375 61.2716797,59.7470703 C61.2716797,59.9908854 61.5223307,60.1914062 62.0236328,60.3486328 L62.553418,60.5126953 C62.6058268,60.5309245 62.6889974,60.5571289 62.8029297,60.5913086 Z" id="Shape" fill="#186FB5" fill-rule="nonzero"></path>
    </g>
</svg>