<?xml version="1.0" encoding="UTF-8"?>
<svg width="64px" height="64px" viewBox="0 0 64 64" version="1.1" xmlns="http://www.w3.org/2000/svg" xmlns:xlink="http://www.w3.org/1999/xlink">
    <title>Demo_Games/AceyDeucy/v3/FaceCards_King</title>
    <g id="Demo_Games/AceyDeucy/v3/FaceCards_King" stroke="none" stroke-width="1" fill="none" fill-rule="evenodd">
        <g id="FaceCards_King" transform="translate(20, 15)" fill="#186FB5" fill-rule="nonzero">
            <rect id="Rectangle" x="4.16666667" y="13.9393939" width="5.95238095" height="1.81818182"></rect>
            <ellipse id="Oval" cx="6.54761905" cy="17.5757576" rx="1.19047619" ry="1.21212121"></ellipse>
            <path d="M19.6428571,4.24242424 L12.5,0 L5.35714286,4.24242424 L0,0 L0,40 L12.5,40 L25,40 L25,0 L19.6428571,4.24242424 Z M12.5,30.3030303 L7.14285714,30.3030303 C7.14285714,30.3030303 8.33333333,29.6969697 10.1190476,28.4848485 C11.9047619,27.2727273 12.5,25.4545455 12.5,25.4545455 C12.5,25.4545455 13.0952381,27.2727273 14.8809524,28.4848485 C16.6666667,29.6969697 17.8571429,30.3030303 17.8571429,30.3030303 L12.5,30.3030303 Z M22.0238095,26.6666667 C22.0238095,26.6666667 19.6428571,23.030303 17.2619048,22.4242424 C14.8809524,21.8181818 14.8809524,21.8181818 14.8809524,21.8181818 L12.5,21.8181818 L10.1190476,21.8181818 C10.1190476,21.8181818 10.1190476,21.8181818 7.73809524,22.4242424 C5.35714286,23.030303 2.97619048,26.6666667 2.97619048,26.6666667 L2.97619048,10.9090909 L12.5,10.9090909 L22.0238095,10.9090909 L22.0238095,26.6666667 Z" id="Shape"></path>
            <rect id="Rectangle" x="14.8809524" y="13.9393939" width="5.95238095" height="1.81818182"></rect>
            <polygon id="Path" points="14.8809524 18.1818182 14.8809524 16.3636364 14.2857143 16.3636364 14.2857143 18.7878788 16.0714286 19.3939394 16.0714286 21.2121212 12.5 21.2121212 8.92857143 21.2121212 8.92857143 19.3939394 10.7142857 18.7878788 10.7142857 16.3636364 10.1190476 16.3636364 10.1190476 18.1818182 8.33333333 18.7878788 8.33333333 21.8181818 12.5 21.8181818 16.6666667 21.8181818 16.6666667 18.7878788"></polygon>
            <ellipse id="Oval" cx="18.452381" cy="17.5757576" rx="1.19047619" ry="1.21212121"></ellipse>
        </g>
        <g id="K" transform="translate(0.5134, 0.6694)" fill="#186FB5" fill-rule="nonzero">
            <polygon id="Path" points="8.73242188 0 5.90185547 3.57763672 10.0771484 11.3305664 6.41650391 11.3305664 3.76025391 6.36669922 3.28710938 6.89794922 3.28710938 11.3305664 0 11.3305664 0 0 3.28710938 0 3.28710938 5.046875 7.18847656 0"></polygon>
        </g>
        <g id="13" transform="translate(57.225, 58.7524)" fill="#186FB5" fill-rule="nonzero">
            <path d="M2.27636719,0.08203125 L2.27636719,4.74755859 L0.970703125,4.74755859 L0.970703125,1.23388672 C0.622070312,1.40250651 0.298502604,1.49707031 0,1.51757813 L0,0.90234375 C0.685872396,0.833984375 1.16894531,0.560546875 1.44921875,0.08203125 L2.27636719,0.08203125 Z" id="Path"></path>
            <path d="M3.16484375,3.20947266 L3.79033203,3.17529297 C3.73792318,3.35530599 3.70830078,3.51595052 3.70146484,3.65722656 C3.67867839,4.15625 3.94186198,4.40576172 4.49101562,4.40576172 C5.03105469,4.40576172 5.30107422,4.1015625 5.30107422,3.49316406 C5.30107422,2.87792969 4.97864583,2.5703125 4.33378906,2.5703125 L3.96464844,2.57714844 L3.96464844,2.02685547 L4.23125,2.03027344 C4.91028646,2.03027344 5.24980469,1.74316406 5.24980469,1.16894531 C5.24980469,0.669921875 5.00940755,0.420410156 4.52861328,0.420410156 C4.05465495,0.420410156 3.81767578,0.640299479 3.81767578,1.08007812 C3.81767578,1.18717448 3.83134766,1.31136068 3.85869141,1.45263672 L3.23320312,1.32275391 C3.23320312,0.440917969 3.74589844,0 4.77128906,0 C5.95390625,0 6.54521484,0.403320313 6.54521484,1.20996094 C6.54521484,1.73860677 6.21139323,2.09749349 5.54375,2.28662109 C6.30026042,2.45979818 6.67851562,2.85172526 6.67851562,3.46240234 C6.67851562,4.37158203 6.04847005,4.82617188 4.78837891,4.82617188 C3.66728516,4.82617188 3.10673828,4.45019531 3.10673828,3.69824219 C3.10673828,3.55696615 3.12610677,3.39404297 3.16484375,3.20947266 Z" id="Path"></path>
        </g>
    </g>
</svg>