<?xml version="1.0" encoding="utf-8"?>
<!-- Generator: Adobe Illustrator 17.1.0, SVG Export Plug-In . SVG Version: 6.00 Build 0)  -->
<!DOCTYPE svg PUBLIC "-//W3C//DTD SVG 1.1//EN" "http://www.w3.org/Graphics/SVG/1.1/DTD/svg11.dtd">
<svg version="1.1" id="Layer_1" xmlns="http://www.w3.org/2000/svg" xmlns:xlink="http://www.w3.org/1999/xlink" x="0px" y="0px"
	 viewBox="0 0 64 64" enable-background="new 0 0 64 64" xml:space="preserve">
<g id="Jack">
	<path fill="#186FB5" d="M23.9,25.6c-3.6,0-5.4,1.8-5.4,1.8h10.8C29.3,27.4,27.5,25.6,23.9,25.6z"/>
	<ellipse fill="#186FB5" cx="24.9" cy="30.6" rx="1.8" ry="1.4"/>
	<path fill="#186FB5" d="M41,40.9c0,0,4.5,5.4,0,5.4c-1,0-3.5-3.3-5.4-4.5c-1.5-1-3.6-0.9-3.6-0.9s-2.1-0.1-3.6,0.9
		c-1.9,1.2-4.4,4.5-5.4,4.5c-4.5,0,0-5.4,0-5.4s-3.6,1.8-3.6,4.5s2.7,5,5.4,4.5c2.3-0.4,7.2-4.5,7.2-4.5s4.9,4.1,7.2,4.5
		c2.7,0.5,5.4-1.8,5.4-4.5S41,40.9,41,40.9z"/>
	<path fill="#186FB5" d="M34.1,37.2v-8h-0.7v8.2l0.1,0.1c0.7,0.7,1.7,1.9,1.7,2.5c-0.1,0.3-1.5,0.6-3.3,0.6c0,0-0.8,0-1.6-0.1
		c-1.5-0.2-1.6-0.5-1.6-0.5c0-0.5,1-1.8,1.7-2.5l0.1-0.1v-8.2h-0.7v8c-0.5,0.5-1.8,1.9-1.8,2.8c0,0.8,1.2,1,2.1,1.1
		c0.9,0.1,1.8,0.1,1.8,0.1s0.9,0,1.8-0.1c0.9-0.1,2.1-0.4,2.1-1.1C35.9,39.1,34.6,37.7,34.1,37.2z"/>
	<path fill="#186FB5" d="M40.1,25.6c3.6,0,5.4,1.8,5.4,1.8H34.7C34.7,27.4,36.5,25.6,40.1,25.6z"/>
	<ellipse fill="#186FB5" cx="39.1" cy="30.6" rx="1.8" ry="1.4"/>
	<path fill="#186FB5" d="M58.1,51.7c0-7.2-6.3-7.2-6.3-7.2c0-8.7-0.1-17.2,0.1-25.9c1-3.6,1.7-7.3,2.6-10.9c-3.5-1.9-7.4-2.6-11.3-3
		C39.4,4.2,35.7,3.9,32,4c-3.6,0-7.2,0.2-10.9,0.6c-2.4,0.3-4.7,0.6-7,1.3c-1.5,0.5-3,0.9-4.5,1.6c0,0-0.1,0.1-0.1,0.2
		c0.9,3.4,1.5,6.7,2.4,10.1c0.1,0.5,0.2,0.9,0.2,1.4c0.2,8.6,0,16.7,0.1,25.3c0,0-6.3,0-6.3,7.2c0,5.1,3.1,6.1,4.3,6.3
		c-1.1,0.1,6.5,0.7,6.5-3.6c0-1.9,0-35.1,0-35.1h30.6c0,0,0,33.2,0,35.1c0,4.3,7.5,3.7,6.5,3.6C55,57.9,58.1,56.8,58.1,51.7z"/>
	<path fill="#186FB5" d="M32,60c-1.6,0-5.8-2.4-9.5-5.4c-2.7-2.2-7.3-6.5-7.3-10.4h1.2c0,2.5,2.5,5.9,6.8,9.5c3.7,3,7.6,5.2,8.8,5.2
		c1.2,0,5.1-2.1,8.8-5.2c4.3-3.6,6.8-7,6.8-9.5h1.2c0,3.9-4.5,8.2-7.3,10.4C37.8,57.6,33.6,60,32,60z"/>
	<path fill="#186FB5" d="M15.8,46.2c0,0,5.3,6.4,6,7s6.6,4.9,6.6,4.9l-17.2,0L15.8,46.2z"/>
	<path fill="#186FB5" d="M48.4,46.2c0,0-5.3,6.4-6,7s-6.6,4.9-6.6,4.9l17.2,0L48.4,46.2z"/>
</g>
</svg>
