<?xml version="1.0" encoding="UTF-8"?>
<svg width="64px" height="64px" viewBox="0 0 64 64" version="1.1" xmlns="http://www.w3.org/2000/svg" xmlns:xlink="http://www.w3.org/1999/xlink">
    <title>Demo_Games/AceyDeucy/v3/FaceCards_5</title>
    <g id="Demo_Games/AceyDeucy/v3/FaceCards_5" stroke="none" stroke-width="1" fill="none" fill-rule="evenodd">
        <path d="M8.59838867,0.669433594 L8.16674805,3.05175781 L2.79614258,3.05175781 L2.37280273,5.47558594 C3.28035482,4.86132813 4.22111003,4.55419922 5.19506836,4.55419922 C6.3737793,4.55419922 7.34082031,4.9000651 8.09619141,5.59179688 C8.8515625,6.28352865 9.22924805,7.16894531 9.22924805,8.24804688 C9.22924805,9.45442708 8.80452474,10.4131673 7.95507812,11.1242676 C7.10563151,11.8353678 5.95874023,12.190918 4.5144043,12.190918 C1.90242513,12.190918 0.596435547,11.2944336 0.596435547,9.50146484 C0.596435547,9.2413737 0.635172526,8.92041016 0.712646484,8.53857422 L2.18188477,8.23144531 C2.08780924,8.68522135 2.04077148,9.10026042 2.04077148,9.4765625 C2.04077148,10.6054688 2.64119466,11.1699219 3.84204102,11.1699219 C5.2808431,11.1699219 6.00024414,10.1489258 6.00024414,8.10693359 C6.00024414,6.66259766 5.38875326,5.94042969 4.16577148,5.94042969 C3.43530273,5.94042969 2.78507487,6.32779948 2.21508789,7.10253906 L0.903564453,6.78710937 L1.96606445,0.669433594 L8.59838867,0.669433594 Z" id="Path" fill="#186FB5" fill-rule="nonzero"></path>
        <path d="M44.7768555,15 L43.3041992,23.1279297 L24.980957,23.1279297 L23.5366211,31.3974609 C26.6329753,29.3017578 29.8426107,28.2539063 33.1655273,28.2539063 C37.1870117,28.2539063 40.4863281,29.4339193 43.0634766,31.7939453 C45.640625,34.1539714 46.9291992,37.1748047 46.9291992,40.8564453 C46.9291992,44.9723307 45.4801432,48.2433268 42.5820312,50.6694336 C39.6839193,53.0955404 35.7709961,54.3085938 30.8432617,54.3085938 C21.9318034,54.3085938 17.4760742,51.25 17.4760742,45.1328125 C17.4760742,44.2454427 17.6082357,43.1503906 17.8725586,41.8476563 L22.8852539,40.7998047 C22.5642904,42.3479818 22.4038086,43.7639974 22.4038086,45.0478516 C22.4038086,48.8994141 24.4523112,50.8251953 28.5493164,50.8251953 C33.4581706,50.8251953 35.9125977,47.3417969 35.9125977,40.375 C35.9125977,35.4472656 33.8263346,32.9833984 29.6538086,32.9833984 C27.1616211,32.9833984 24.9431966,34.305013 22.9985352,36.9482422 L18.5239258,35.8720703 L22.1489258,15 L44.7768555,15 Z" id="Path" fill="#186FB5" fill-rule="nonzero"></path>
    </g>
</svg>