<?xml version="1.0" encoding="UTF-8"?>
<svg width="64px" height="64px" viewBox="0 0 64 64" version="1.1" xmlns="http://www.w3.org/2000/svg" xmlns:xlink="http://www.w3.org/1999/xlink">
    <title>Demo_Games/AceyDeucy/FaceCards_10</title>
    <g id="Demo_Games/AceyDeucy/FaceCards_10" stroke="none" stroke-width="1" fill="none" fill-rule="evenodd">
        <path d="M5.66357422,0.669433594 L5.66357422,12 L2.49267578,12 L2.49267578,3.46679688 C1.64599609,3.87630208 0.860188802,4.10595703 0.135253906,4.15576172 L0.135253906,2.66162109 C1.80094401,2.49560547 2.97412109,1.83154297 3.65478516,0.669433594 L5.66357422,0.669433594 Z" id="Path" fill="#186FB5" fill-rule="nonzero"></path>
        <path d="M11.6556641,0.495117188 C14.8154948,0.495117188 16.3954102,2.44303385 16.3954102,6.33886719 C16.3954102,10.2347005 14.8154948,12.1826172 11.6556641,12.1826172 C8.49029948,12.1826172 6.90761719,10.2347005 6.90761719,6.33886719 C6.90761719,2.44303385 8.49029948,0.495117188 11.6556641,0.495117188 Z M11.6556641,1.39990234 C10.7923828,1.39990234 10.3607422,3.04622396 10.3607422,6.33886719 C10.3607422,9.63151042 10.7923828,11.277832 11.6556641,11.277832 C12.5134115,11.277832 12.9422852,9.63151042 12.9422852,6.33886719 C12.9422852,3.04622396 12.5134115,1.39990234 11.6556641,1.39990234 Z" id="Shape" fill="#186FB5" fill-rule="nonzero"></path>
        <path d="M21.9404297,18.3427734 L21.9404297,57 L11.1220703,57 L11.1220703,27.8867188 C8.23339844,29.2838542 5.55240885,30.0673828 3.07910156,30.2373047 L3.07910156,25.1396484 C8.76204427,24.5732422 12.7646484,22.3076172 15.0869141,18.3427734 L21.9404297,18.3427734 Z" id="Path" fill="#186FB5" fill-rule="nonzero"></path>
        <path d="M42.6722656,17.7480469 C53.4528646,17.7480469 58.8431641,24.3938802 58.8431641,37.6855469 C58.8431641,50.9772135 53.4528646,57.6230469 42.6722656,57.6230469 C31.8727865,57.6230469 26.4730469,50.9772135 26.4730469,37.6855469 C26.4730469,24.3938802 31.8727865,17.7480469 42.6722656,17.7480469 Z M42.6722656,20.8349609 C39.7269531,20.8349609 38.2542969,26.4518229 38.2542969,37.6855469 C38.2542969,48.9192708 39.7269531,54.5361328 42.6722656,54.5361328 C45.5986979,54.5361328 47.0619141,48.9192708 47.0619141,37.6855469 C47.0619141,26.4518229 45.5986979,20.8349609 42.6722656,20.8349609 Z" id="Shape" fill="#186FB5" fill-rule="nonzero"></path>
        <path d="M59.5116211,58.8344727 L59.5116211,63.5 L58.205957,63.5 L58.205957,59.9863281 C57.8573242,60.1549479 57.5337565,60.2495117 57.2352539,60.2700195 L57.2352539,59.6547852 C57.9211263,59.5864258 58.4041992,59.3129883 58.6844727,58.8344727 L59.5116211,58.8344727 Z" id="Path" fill="#186FB5" fill-rule="nonzero"></path>
        <path d="M62.1671875,58.7626953 C63.4682943,58.7626953 64.1188477,59.5647786 64.1188477,61.1689453 C64.1188477,62.773112 63.4682943,63.5751953 62.1671875,63.5751953 C60.8638021,63.5751953 60.2121094,62.773112 60.2121094,61.1689453 C60.2121094,59.5647786 60.8638021,58.7626953 62.1671875,58.7626953 Z M62.1671875,59.1352539 C61.8117187,59.1352539 61.6339844,59.813151 61.6339844,61.1689453 C61.6339844,62.5247396 61.8117187,63.2026367 62.1671875,63.2026367 C62.5203776,63.2026367 62.6969727,62.5247396 62.6969727,61.1689453 C62.6969727,59.813151 62.5203776,59.1352539 62.1671875,59.1352539 Z" id="Shape" fill="#186FB5" fill-rule="nonzero"></path>
    </g>
</svg>