<?xml version="1.0" encoding="UTF-8"?>
<svg width="64px" height="64px" viewBox="0 0 64 64" version="1.1" xmlns="http://www.w3.org/2000/svg" xmlns:xlink="http://www.w3.org/1999/xlink">
    <title>Demo_Games/AceyDeucy/v3/FaceCards_10</title>
    <g id="Demo_Games/AceyDeucy/v3/FaceCards_10" stroke="none" stroke-width="1" fill="none" fill-rule="evenodd">
        <path d="M5.66357422,0.669433594 L5.66357422,12 L2.49267578,12 L2.49267578,3.46679688 C1.64599609,3.87630208 0.860188802,4.10595703 0.135253906,4.15576172 L0.135253906,2.66162109 C1.80094401,2.49560547 2.97412109,1.83154297 3.65478516,0.669433594 L5.66357422,0.669433594 Z" id="Path" fill="#186FB5" fill-rule="nonzero"></path>
        <path d="M11.6556641,0.495117188 C14.8154948,0.495117188 16.3954102,2.44303385 16.3954102,6.33886719 C16.3954102,10.2347005 14.8154948,12.1826172 11.6556641,12.1826172 C8.49029948,12.1826172 6.90761719,10.2347005 6.90761719,6.33886719 C6.90761719,2.44303385 8.49029948,0.495117188 11.6556641,0.495117188 Z M11.6556641,1.39990234 C10.7923828,1.39990234 10.3607422,3.04622396 10.3607422,6.33886719 C10.3607422,9.63151042 10.7923828,11.277832 11.6556641,11.277832 C12.5134115,11.277832 12.9422852,9.63151042 12.9422852,6.33886719 C12.9422852,3.04622396 12.5134115,1.39990234 11.6556641,1.39990234 Z" id="Shape" fill="#186FB5" fill-rule="nonzero"></path>
        <path d="M21.9404297,15 L21.9404297,54.88 L11.1220703,54.88 L11.1220703,24.8458315 C8.23339844,26.28716 5.55240885,27.0954725 3.07910156,27.2707692 L3.07910156,22.0118681 C8.76204427,21.4275458 12.7646484,19.0902564 15.0869141,15 L21.9404297,15 Z" id="Path" fill="#186FB5" fill-rule="nonzero"></path>
        <path d="M42.6722656,15 C53.4528646,15 58.8431641,21.6458333 58.8431641,34.9375 C58.8431641,48.2291667 53.4528646,54.875 42.6722656,54.875 C31.8727865,54.875 26.4730469,48.2291667 26.4730469,34.9375 C26.4730469,21.6458333 31.8727865,15 42.6722656,15 Z M42.6722656,18.0869141 C39.7269531,18.0869141 38.2542969,23.703776 38.2542969,34.9375 C38.2542969,46.171224 39.7269531,51.7880859 42.6722656,51.7880859 C45.5986979,51.7880859 47.0619141,46.171224 47.0619141,34.9375 C47.0619141,23.703776 45.5986979,18.0869141 42.6722656,18.0869141 Z" id="Shape" fill="#186FB5" fill-rule="nonzero"></path>
    </g>
</svg>