<?xml version="1.0" encoding="UTF-8"?>
<svg width="64px" height="64px" viewBox="0 0 64 64" version="1.1" xmlns="http://www.w3.org/2000/svg" xmlns:xlink="http://www.w3.org/1999/xlink">
    <title>Demo_Games/AceyDeucy/FaceCards_7</title>
    <g id="Demo_Games/AceyDeucy/FaceCards_7" stroke="none" stroke-width="1" fill="none" fill-rule="evenodd">
        <path d="M9.1171875,0.669433594 L9.1171875,2.41259766 C7.16373698,4.96923828 6.18701172,7.9436849 6.18701172,11.3359375 L6.18701172,12 L2.51806641,12 C2.71728516,8.70735677 4.03434245,5.79101562 6.46923828,3.25097656 L0.633789062,3.25097656 L1.02392578,0.669433594 L9.1171875,0.669433594 Z" id="Path" fill="#186FB5" fill-rule="nonzero"></path>
        <path d="M46.546875,18.3427734 L46.546875,24.2900391 C39.8821615,33.0126953 36.5498047,43.1608073 36.5498047,54.734375 L36.5498047,57 L24.0322266,57 C24.7119141,45.766276 29.2054036,35.8164062 37.5126953,27.1503906 L17.6035156,27.1503906 L18.9345703,18.3427734 L46.546875,18.3427734 Z" id="Path" fill="#186FB5" fill-rule="nonzero"></path>
        <path d="M63.859082,58.8344727 L63.859082,59.5522461 C63.0547201,60.6049805 62.6525391,61.8297526 62.6525391,63.2265625 L62.6525391,63.5 L61.1417969,63.5 C61.2238281,62.1442057 61.7661458,60.9433594 62.76875,59.8974609 L60.365918,59.8974609 L60.5265625,58.8344727 L63.859082,58.8344727 Z" id="Path" fill="#186FB5" fill-rule="nonzero"></path>
    </g>
</svg>