<?xml version="1.0" encoding="UTF-8"?>
<svg width="64px" height="64px" viewBox="0 0 64 64" version="1.1" xmlns="http://www.w3.org/2000/svg" xmlns:xlink="http://www.w3.org/1999/xlink">
    <title>Demo_Games/AceyDeucy/FaceCards_6</title>
    <g id="Demo_Games/AceyDeucy/FaceCards_6" stroke="none" stroke-width="1" fill="none" fill-rule="evenodd">
        <path d="M8.95117188,3.59960937 L7.44042969,3.84863281 C7.50683594,3.48339844 7.54003906,3.17073568 7.54003906,2.91064453 C7.54003906,1.89241536 7.05859375,1.38330078 6.09570312,1.38330078 C5.40397135,1.38330078 4.91837565,1.6558431 4.63891602,2.20092773 C4.35945638,2.74601237 4.15332031,3.81542969 4.02050781,5.40917969 C4.71223958,4.80598958 5.43164062,4.50439453 6.17871094,4.50439453 C7.15266927,4.50439453 7.96061198,4.84472656 8.60253906,5.52539062 C9.24446615,6.20605469 9.56542969,7.06380208 9.56542969,8.09863281 C9.56542969,9.34375 9.18774414,10.3398438 8.43237305,11.0869141 C7.67700195,11.8339844 6.67122396,12.2075195 5.41503906,12.2075195 C2.18326823,12.2075195 0.567382812,10.3149414 0.567382812,6.52978516 C0.567382812,4.68701172 1.0308431,3.21777344 1.95776367,2.12207031 C2.88468424,1.02636719 4.12841797,0.478515625 5.68896484,0.478515625 C7.88590495,0.478515625 8.984375,1.3445638 8.984375,3.07666016 C8.984375,3.22607422 8.97330729,3.40039062 8.95117188,3.59960937 Z M5.21582031,5.66650391 C4.34700521,5.66650391 3.91259766,6.54085286 3.91259766,8.28955078 C3.91259766,10.2983398 4.32210286,11.3027344 5.14111328,11.3027344 C5.93798828,11.3027344 6.33642578,10.2402344 6.33642578,8.11523438 C6.33642578,6.4827474 5.96289062,5.66650391 5.21582031,5.66650391 Z" id="Shape" fill="#186FB5" fill-rule="nonzero"></path>
        <path d="M45.9804688,29.3398437 L40.8261719,30.1894531 C41.0527344,28.9433594 41.1660156,27.8766276 41.1660156,26.9892578 C41.1660156,23.5152995 39.5234375,21.7783203 36.2382812,21.7783203 C33.8782552,21.7783203 32.2215169,22.7081706 31.2680664,24.5678711 C30.3146159,26.4275716 29.6113281,30.0761719 29.1582031,35.5136719 C31.5182292,33.4557292 33.9726562,32.4267578 36.5214844,32.4267578 C39.844401,32.4267578 42.6009115,33.5878906 44.7910156,35.9101562 C46.9811198,38.2324219 48.0761719,41.1588542 48.0761719,44.6894531 C48.0761719,48.9375 46.7875977,52.3359375 44.2104492,54.8847656 C41.6333008,57.4335937 38.2018229,58.7080078 33.9160156,58.7080078 C22.889974,58.7080078 17.3769531,52.2509766 17.3769531,39.3369141 C17.3769531,33.0498047 18.9581706,28.0371094 22.1206055,24.2988281 C25.2830404,20.5605469 29.5263672,18.6914062 34.8505859,18.6914062 C42.3460286,18.6914062 46.09375,21.6461589 46.09375,27.5556641 C46.09375,28.0654297 46.0559896,28.6601562 45.9804688,29.3398437 Z M33.2363281,36.3916016 C30.2721354,36.3916016 28.7900391,39.3746745 28.7900391,45.3408203 C28.7900391,52.1943359 30.1871745,55.6210938 32.9814453,55.6210938 C35.7001953,55.6210938 37.0595703,51.9960937 37.0595703,44.7460938 C37.0595703,39.1764323 35.7851562,36.3916016 33.2363281,36.3916016 Z" id="Shape" fill="#186FB5" fill-rule="nonzero"></path>
        <path d="M63.7838867,60.0410156 L63.1618164,60.1435547 C63.1891602,59.9931641 63.202832,59.8644206 63.202832,59.7573242 C63.202832,59.3380534 63.0045898,59.128418 62.6081055,59.128418 C62.3232747,59.128418 62.1233236,59.2406413 62.008252,59.4650879 C61.8931803,59.6895345 61.8083008,60.1298828 61.7536133,60.7861328 C62.038444,60.5377604 62.334668,60.4135742 62.6422852,60.4135742 C63.0433268,60.4135742 63.3760091,60.5537109 63.640332,60.8339844 C63.9046549,61.1142578 64.0368164,61.4674479 64.0368164,61.8935547 C64.0368164,62.40625 63.8812988,62.8164062 63.5702637,63.1240234 C63.2592285,63.4316406 62.8450846,63.5854492 62.327832,63.5854492 C60.9971029,63.5854492 60.3317383,62.8061523 60.3317383,61.2475586 C60.3317383,60.4887695 60.5225749,59.8837891 60.904248,59.4326172 C61.2859212,58.9814453 61.7980469,58.7558594 62.440625,58.7558594 C63.3452474,58.7558594 63.7975586,59.1124674 63.7975586,59.8256836 C63.7975586,59.887207 63.7930013,59.9589844 63.7838867,60.0410156 Z M62.2458008,60.8920898 C61.8880534,60.8920898 61.7091797,61.2521159 61.7091797,61.972168 C61.7091797,62.7993164 61.8777995,63.2128906 62.2150391,63.2128906 C62.5431641,63.2128906 62.7072266,62.7753906 62.7072266,61.9003906 C62.7072266,61.2281901 62.553418,60.8920898 62.2458008,60.8920898 Z" id="Shape" fill="#186FB5" fill-rule="nonzero"></path>
    </g>
</svg>