<?xml version="1.0" encoding="UTF-8"?>
<svg width="64px" height="64px" viewBox="0 0 64 64" version="1.1" xmlns="http://www.w3.org/2000/svg" xmlns:xlink="http://www.w3.org/1999/xlink">
    <title>Demo_Games/AceyDeucy/FaceCards_Ace_Blue</title>
    <g id="Demo_Games/AceyDeucy/FaceCards_Ace_Blue" stroke="none" stroke-width="1" fill="none" fill-rule="evenodd">
        <path d="M36.9803066,18 C37.0108333,18.0219931 37.0384329,18.0511762 37.072305,18.0647104 C37.9032187,18.3920692 38.2009593,18.9575454 37.9768175,19.815276 C37.0438692,23.3832323 36.1071572,26.9499198 35.1716998,30.5170302 C34.8852499,31.6099177 34.5967092,32.7019593 34.3110957,33.7948468 C34.2851688,33.8929698 34.2751326,33.9953223 34.2475331,34.156887 L34.7213253,34.156887 C38.3117757,34.156887 41.902226,34.1636541 45.4930945,34.1501198 C46.1065572,34.1475822 46.5811858,34.330717 46.8550904,34.9008456 C47.1356858,35.4853543 46.9889064,35.9916184 46.5857857,36.4809647 C40.829189,43.4701157 35.0801195,50.4656108 29.3277045,57.4585683 C28.8656212,58.020661 28.2943942,58.1450066 27.6775861,57.8320279 C27.0858685,57.5317376 26.8299454,56.9472289 27.0097606,56.2595218 C28.2262316,51.5982551 29.4468844,46.9378342 30.6654463,42.2774134 C30.6976457,42.1547596 30.7218999,42.0299911 30.7645537,41.8409351 C30.5742841,41.8409351 30.4262502,41.8409351 30.2786344,41.8409351 C26.6881841,41.8409351 23.0977338,41.833745 19.5068653,41.8472792 C18.8934026,41.8498169 18.4196103,41.6645674 18.1448694,41.0952847 C17.8630194,40.510353 18.0131443,40.0062036 18.4162649,39.5168573 C24.1812251,32.5175557 29.9369855,25.510641 35.7036184,18.5130312 C35.8767428,18.302828 36.1406112,18.1691776 36.3622439,18 L36.9803066,18 Z" id="bolt-shape" fill="#186FB5" fill-rule="nonzero"></path>
        <g id="A" transform="translate(0.7893, 0.6694)" fill="#186FB5" fill-rule="nonzero">
            <path d="M6.2421875,0 L9.39648438,11.3305664 L6.09277344,11.3305664 L5.42041016,8.87353516 L2.00878906,8.87353516 L1.28662109,11.3305664 L0,11.3305664 L3.35351563,0 L6.2421875,0 Z M2.33251953,7.73632812 L5.11328125,7.73632812 L3.77685547,2.71435547 L2.33251953,7.73632812 Z" id="Shape"></path>
        </g>
        <g id="14" transform="translate(57.2353, 58.8345)" fill="#186FB5" fill-rule="nonzero">
            <path d="M2.27636719,0 L2.27636719,4.66552734 L0.970703125,4.66552734 L0.970703125,1.15185547 C0.622070312,1.32047526 0.298502604,1.41503906 0,1.43554688 L0,0.8203125 C0.685872396,0.751953125 1.16894531,0.478515625 1.44921875,0 L2.27636719,0 Z" id="Path"></path>
            <path d="M6.66142578,3.69140625 L6.1453125,3.69140625 L6.1453125,4.66552734 L4.81914062,4.66552734 L4.81914062,3.69140625 L3.0828125,3.69140625 L3.0828125,3.11376953 L5.25664062,0 L6.1453125,0 L6.1453125,3.16503906 L6.66142578,3.16503906 L6.66142578,3.69140625 Z M3.68779297,3.16503906 L4.83964844,3.16503906 L4.83964844,1.38085938 L3.68779297,3.16503906 Z" id="Shape"></path>
        </g>
    </g>
</svg>