<?xml version="1.0" encoding="UTF-8"?>
<svg width="64px" height="64px" viewBox="0 0 64 64" version="1.1" xmlns="http://www.w3.org/2000/svg" xmlns:xlink="http://www.w3.org/1999/xlink">
    <title>Demo_Games/AceyDeucy/FaceCards_3</title>
    <g id="Demo_Games/AceyDeucy/FaceCards_3" stroke="none" stroke-width="1" fill="none" fill-rule="evenodd">
        <path d="M0.704345703,8.26464844 L2.22338867,8.18164063 C2.09611003,8.6188151 2.02416992,9.00895182 2.00756836,9.35205078 C1.95222982,10.5639648 2.59138997,11.1699219 3.92504883,11.1699219 C5.23657227,11.1699219 5.89233398,10.4311523 5.89233398,8.95361328 C5.89233398,7.45947266 5.10929362,6.71240234 3.54321289,6.71240234 L2.64672852,6.72900391 L2.64672852,5.39257812 L3.29418945,5.40087891 C4.94327799,5.40087891 5.76782227,4.70361328 5.76782227,3.30908203 C5.76782227,2.09716797 5.18400065,1.49121094 4.01635742,1.49121094 C2.86531576,1.49121094 2.28979492,2.02522786 2.28979492,3.09326172 C2.28979492,3.35335286 2.32299805,3.65494792 2.3894043,3.99804688 L0.870361328,3.68261719 C0.870361328,1.54101562 2.11547852,0.470214844 4.60571289,0.470214844 C7.4777832,0.470214844 8.91381836,1.44970703 8.91381836,3.40869141 C8.91381836,4.69254557 8.10310872,5.5641276 6.48168945,6.0234375 C8.31892904,6.44401042 9.23754883,7.39583333 9.23754883,8.87890625 C9.23754883,11.0869141 7.70743815,12.190918 4.6472168,12.190918 C1.92456055,12.190918 0.563232422,11.277832 0.563232422,9.45166016 C0.563232422,9.1085612 0.610270182,8.71289062 0.704345703,8.26464844 Z" id="Path" fill="#186FB5" fill-rule="nonzero"></path>
        <path d="M17.8442383,44.2558594 L23.0268555,43.9726563 C22.5926107,45.4641927 22.347168,46.7952474 22.2905273,47.9658203 C22.1017253,52.1005859 24.2823893,54.1679688 28.8325195,54.1679688 C33.3071289,54.1679688 35.5444336,51.6474609 35.5444336,46.6064453 C35.5444336,41.5087891 32.8728841,38.9599609 27.5297852,38.9599609 L24.4711914,39.0166016 L24.4711914,34.4570312 L26.6801758,34.4853516 C32.3064779,34.4853516 35.1196289,32.1064453 35.1196289,27.3486328 C35.1196289,23.2138672 33.1277669,21.1464844 29.144043,21.1464844 C25.2169596,21.1464844 23.253418,22.9684245 23.253418,26.6123047 C23.253418,27.4996745 23.3666992,28.5286458 23.5932617,29.6992188 L18.4106445,28.6230469 C18.4106445,21.3164062 22.6586914,17.6630859 31.1547852,17.6630859 C40.9536133,17.6630859 45.8530273,21.0048828 45.8530273,27.6884766 C45.8530273,32.0686849 43.0870768,35.0423177 37.5551758,36.609375 C43.8234049,38.0442708 46.9575195,41.2916667 46.9575195,46.3515625 C46.9575195,53.8847656 41.7371419,57.6513672 31.2963867,57.6513672 C22.0073242,57.6513672 17.362793,54.5361328 17.362793,48.3056641 C17.362793,47.1350911 17.5232747,45.7851562 17.8442383,44.2558594 Z" id="Path" fill="#186FB5" fill-rule="nonzero"></path>
        <path d="M60.3898437,61.9619141 L61.015332,61.9277344 C60.9629232,62.1077474 60.9333008,62.2683919 60.9264648,62.409668 C60.9036784,62.9086914 61.166862,63.1582031 61.7160156,63.1582031 C62.2560547,63.1582031 62.5260742,62.8540039 62.5260742,62.2456055 C62.5260742,61.6303711 62.2036458,61.3227539 61.5587891,61.3227539 L61.1896484,61.3295898 L61.1896484,60.7792969 L61.45625,60.7827148 C62.1352865,60.7827148 62.4748047,60.4956055 62.4748047,59.9213867 C62.4748047,59.4223633 62.2344076,59.1728516 61.7536133,59.1728516 C61.2796549,59.1728516 61.0426758,59.3927409 61.0426758,59.8325195 C61.0426758,59.9396159 61.0563477,60.0638021 61.0836914,60.2050781 L60.4582031,60.0751953 C60.4582031,59.1933594 60.9708984,58.7524414 61.9962891,58.7524414 C63.1789062,58.7524414 63.7702148,59.1557617 63.7702148,59.9624023 C63.7702148,60.4910482 63.4363932,60.8499349 62.76875,61.0390625 C63.5252604,61.2122396 63.9035156,61.6041667 63.9035156,62.2148438 C63.9035156,63.1240234 63.2734701,63.5786133 62.0133789,63.5786133 C60.8922852,63.5786133 60.3317383,63.2026367 60.3317383,62.4506836 C60.3317383,62.3094076 60.3511068,62.1464844 60.3898437,61.9619141 Z" id="Path" fill="#186FB5" fill-rule="nonzero"></path>
    </g>
</svg>