<?xml version="1.0" encoding="UTF-8"?>
<svg width="64px" height="64px" viewBox="0 0 64 64" version="1.1" xmlns="http://www.w3.org/2000/svg" xmlns:xlink="http://www.w3.org/1999/xlink">
    <title>Demo_Games/AceyDeucy/FaceCards_2</title>
    <g id="Demo_Games/AceyDeucy/FaceCards_2" stroke="none" stroke-width="1" fill="none" fill-rule="evenodd">
        <path d="M9.09228516,9.27734375 L9.09228516,12 L0.642089844,12 L0.642089844,10.3979492 C1.33382161,9.63427734 2.12792969,8.82080078 3.02441406,7.95751953 C5.03320313,6.03727214 6.03759766,4.56803385 6.03759766,3.54980469 C6.03759766,2.19401042 5.5008138,1.51611328 4.42724609,1.51611328 C3.12125651,1.51611328 2.46826172,2.3351237 2.46826172,3.97314453 C2.46826172,4.36051432 2.56233724,4.90559896 2.75048828,5.60839844 L0.999023438,5.19335937 C0.866210938,4.67317708 0.799804688,4.25537109 0.799804688,3.93994141 C0.799804688,1.64339193 2.21923828,0.495117188 5.05810547,0.495117188 C6.25895182,0.495117188 7.24674479,0.791178385 8.02148438,1.38330078 C8.79622396,1.97542318 9.18359375,2.7335612 9.18359375,3.65771484 C9.18359375,4.71468099 8.41715495,5.86572266 6.88427734,7.11083984 L5.85498047,7.94091797 L4.71777344,8.89550781 C4.64583333,8.95638021 4.46875,9.08365885 4.18652344,9.27734375 L9.09228516,9.27734375 Z" id="Path" fill="#186FB5" fill-rule="nonzero"></path>
        <path d="M46.4619141,47.7109375 L46.4619141,57 L17.6318359,57 L17.6318359,51.5341797 C19.991862,48.9287109 22.7011719,46.1533203 25.7597656,43.2080078 C32.6132813,36.6565755 36.0400391,31.6438802 36.0400391,28.1699219 C36.0400391,23.5442708 34.2086589,21.2314453 30.5458984,21.2314453 C26.0901693,21.2314453 23.8623047,24.0257161 23.8623047,29.6142578 C23.8623047,30.9358724 24.1832682,32.7955729 24.8251953,35.1933594 L18.8496094,33.7773437 C18.3964844,32.0026042 18.1699219,30.5771484 18.1699219,29.5009766 C18.1699219,21.6656901 23.0126953,17.7480469 32.6982422,17.7480469 C36.7952474,17.7480469 40.1653646,18.758138 42.8085938,20.7783203 C45.4518229,22.7985026 46.7734375,25.3850911 46.7734375,28.5380859 C46.7734375,32.1442057 44.1585286,36.0712891 38.9287109,40.3193359 L35.4169922,43.1513672 L31.5371094,46.4082031 C31.2916667,46.6158854 30.6875,47.0501302 29.7246094,47.7109375 L46.4619141,47.7109375 Z" id="Path" fill="#186FB5" fill-rule="nonzero"></path>
        <path d="M63.8488281,62.3789062 L63.8488281,63.5 L60.3693359,63.5 L60.3693359,62.840332 C60.6541667,62.5258789 60.9811523,62.190918 61.350293,61.8354492 C62.1774414,61.0447591 62.5910156,60.4397786 62.5910156,60.0205078 C62.5910156,59.4622396 62.369987,59.1831055 61.9279297,59.1831055 C61.3901693,59.1831055 61.1212891,59.5203451 61.1212891,60.1948242 C61.1212891,60.3543294 61.160026,60.578776 61.2375,60.8681641 L60.5163086,60.6972656 C60.4616211,60.4830729 60.4342773,60.3110352 60.4342773,60.1811523 C60.4342773,59.2355143 61.01875,58.7626953 62.1876953,58.7626953 C62.6821615,58.7626953 63.0888997,58.8846029 63.4079102,59.128418 C63.7269206,59.3722331 63.8864258,59.6844076 63.8864258,60.0649414 C63.8864258,60.5001628 63.5708333,60.9741211 62.9396484,61.4868164 L62.5158203,61.8286133 L62.0475586,62.2216797 C62.0179362,62.2467448 61.9450195,62.2991536 61.8288086,62.3789062 L63.8488281,62.3789062 Z" id="Path" fill="#186FB5" fill-rule="nonzero"></path>
    </g>
</svg>