<?xml version="1.0" encoding="UTF-8"?>
<svg width="64px" height="64px" viewBox="0 0 64 64" version="1.1" xmlns="http://www.w3.org/2000/svg" xmlns:xlink="http://www.w3.org/1999/xlink">
    <title>Demo_Games/AceyDeucy/v3/FaceCards_9</title>
    <g id="Demo_Games/AceyDeucy/v3/FaceCards_9" stroke="none" stroke-width="1" fill="none" fill-rule="evenodd">
        <path d="M1.04882813,9.14453125 L2.55126953,8.84570312 C2.49593099,9.17773438 2.46826172,9.47102865 2.46826172,9.72558594 C2.46826172,10.7659505 2.96077474,11.2861328 3.94580078,11.2861328 C4.62646484,11.2861328 5.10099284,11.0218913 5.36938477,10.4934082 C5.63777669,9.96492513 5.83837891,8.89274089 5.97119141,7.27685547 C5.27945964,7.90771484 4.5711263,8.22314453 3.84619141,8.22314453 C2.85009766,8.22314453 2.03385417,7.87589518 1.39746094,7.18139648 C0.761067708,6.48689779 0.442871094,5.59733073 0.442871094,4.51269531 C0.442871094,3.30078125 0.826090495,2.32543945 1.5925293,1.58666992 C2.3589681,0.847900391 3.37027995,0.478515625 4.62646484,0.478515625 C7.83056641,0.478515625 9.43261719,2.40429688 9.43261719,6.25585937 C9.43261719,8.09863281 8.97054036,9.5485026 8.04638672,10.6054687 C7.12223307,11.6624349 5.8577474,12.190918 4.25292969,12.190918 C2.10026042,12.190918 1.02392578,11.3857422 1.02392578,9.77539062 C1.02392578,9.62597656 1.03222656,9.4156901 1.04882813,9.14453125 Z M4.88378906,1.38330078 C4.07584635,1.38330078 3.671875,2.42643229 3.671875,4.51269531 C3.671875,6.21158854 4.02604167,7.06103516 4.734375,7.06103516 C5.63639323,7.06103516 6.08740234,6.14794922 6.08740234,4.32177734 C6.08740234,2.36279297 5.68619792,1.38330078 4.88378906,1.38330078 Z" id="Shape" fill="#186FB5" fill-rule="nonzero"></path>
        <path d="M19.0195312,44.5664062 L24.1455078,43.546875 C23.9567057,44.6796875 23.8623047,45.6803385 23.8623047,46.5488281 C23.8623047,50.0983073 25.5426432,51.8730469 28.9033203,51.8730469 C31.2255859,51.8730469 32.8445638,50.9715169 33.7602539,49.168457 C34.675944,47.3653971 35.3603516,43.7073568 35.8134766,38.1943359 C33.4534505,40.3466797 31.0367839,41.4228516 28.5634766,41.4228516 C25.1650391,41.4228516 22.3802083,40.2381185 20.2089844,37.8686523 C18.0377604,35.4991862 16.9521484,32.4641927 16.9521484,28.7636719 C16.9521484,24.6289063 18.2596029,21.3012695 20.8745117,18.7807617 C23.4894206,16.2602539 26.9397786,15 31.2255859,15 C42.1572266,15 47.6230469,21.5703125 47.6230469,34.7109375 C47.6230469,40.9980469 46.0465495,45.9446615 42.8935547,49.5507812 C39.7405599,53.156901 35.4264323,54.9599609 29.9511719,54.9599609 C22.6067708,54.9599609 18.9345703,52.2128906 18.9345703,46.71875 C18.9345703,46.2089844 18.9628906,45.4915365 19.0195312,44.5664062 Z M32.1035156,18.0869141 C29.3470052,18.0869141 27.96875,21.6458333 27.96875,28.7636719 C27.96875,34.5598958 29.1770833,37.4580078 31.59375,37.4580078 C34.671224,37.4580078 36.2099609,34.3427734 36.2099609,28.1123047 C36.2099609,21.4287109 34.8411458,18.0869141 32.1035156,18.0869141 Z" id="Shape" fill="#186FB5" fill-rule="nonzero"></path>
    </g>
</svg>