<?xml version="1.0" encoding="UTF-8"?>
<svg width="64px" height="64px" viewBox="0 0 64 64" version="1.1" xmlns="http://www.w3.org/2000/svg" xmlns:xlink="http://www.w3.org/1999/xlink">
    <title>Demo_Games/AceyDeucy/FaceCards_9</title>
    <g id="Demo_Games/AceyDeucy/FaceCards_9" stroke="none" stroke-width="1" fill="none" fill-rule="evenodd">
        <path d="M1.04882813,9.14453125 L2.55126953,8.84570312 C2.49593099,9.17773438 2.46826172,9.47102865 2.46826172,9.72558594 C2.46826172,10.7659505 2.96077474,11.2861328 3.94580078,11.2861328 C4.62646484,11.2861328 5.10099284,11.0218913 5.36938477,10.4934082 C5.63777669,9.96492513 5.83837891,8.89274089 5.97119141,7.27685547 C5.27945964,7.90771484 4.5711263,8.22314453 3.84619141,8.22314453 C2.85009766,8.22314453 2.03385417,7.87589518 1.39746094,7.18139648 C0.761067708,6.48689779 0.442871094,5.59733073 0.442871094,4.51269531 C0.442871094,3.30078125 0.826090495,2.32543945 1.5925293,1.58666992 C2.3589681,0.847900391 3.37027995,0.478515625 4.62646484,0.478515625 C7.83056641,0.478515625 9.43261719,2.40429688 9.43261719,6.25585937 C9.43261719,8.09863281 8.97054036,9.5485026 8.04638672,10.6054687 C7.12223307,11.6624349 5.8577474,12.190918 4.25292969,12.190918 C2.10026042,12.190918 1.02392578,11.3857422 1.02392578,9.77539062 C1.02392578,9.62597656 1.03222656,9.4156901 1.04882813,9.14453125 Z M4.88378906,1.38330078 C4.07584635,1.38330078 3.671875,2.42643229 3.671875,4.51269531 C3.671875,6.21158854 4.02604167,7.06103516 4.734375,7.06103516 C5.63639323,7.06103516 6.08740234,6.14794922 6.08740234,4.32177734 C6.08740234,2.36279297 5.68619792,1.38330078 4.88378906,1.38330078 Z" id="Shape" fill="#186FB5" fill-rule="nonzero"></path>
        <path d="M19.0195312,48.2578125 L24.1455078,47.2382812 C23.9567057,48.3710938 23.8623047,49.3717448 23.8623047,50.2402344 C23.8623047,53.7897135 25.5426432,55.5644531 28.9033203,55.5644531 C31.2255859,55.5644531 32.8445638,54.6629232 33.7602539,52.8598633 C34.675944,51.0568034 35.3603516,47.398763 35.8134766,41.8857422 C33.4534505,44.0380859 31.0367839,45.1142578 28.5634766,45.1142578 C25.1650391,45.1142578 22.3802083,43.9295247 20.2089844,41.5600586 C18.0377604,39.1905924 16.9521484,36.155599 16.9521484,32.4550781 C16.9521484,28.3203125 18.2596029,24.9926758 20.8745117,22.472168 C23.4894206,19.9516602 26.9397786,18.6914062 31.2255859,18.6914062 C42.1572266,18.6914062 47.6230469,25.2617188 47.6230469,38.4023437 C47.6230469,44.6894531 46.0465495,49.6360677 42.8935547,53.2421875 C39.7405599,56.8483073 35.4264323,58.6513672 29.9511719,58.6513672 C22.6067708,58.6513672 18.9345703,55.9042969 18.9345703,50.4101562 C18.9345703,49.9003906 18.9628906,49.1829427 19.0195312,48.2578125 Z M32.1035156,21.7783203 C29.3470052,21.7783203 27.96875,25.3372396 27.96875,32.4550781 C27.96875,38.2513021 29.1770833,41.1494141 31.59375,41.1494141 C34.671224,41.1494141 36.2099609,38.0341797 36.2099609,31.8037109 C36.2099609,25.1201172 34.8411458,21.7783203 32.1035156,21.7783203 Z" id="Shape" fill="#186FB5" fill-rule="nonzero"></path>
        <path d="M60.5333984,62.3242188 L61.1520508,62.2011719 C61.1292643,62.3378906 61.1178711,62.4586589 61.1178711,62.5634766 C61.1178711,62.991862 61.3206706,63.2060547 61.7262695,63.2060547 C62.006543,63.2060547 62.2019368,63.0972493 62.3124512,62.8796387 C62.4229655,62.662028 62.5055664,62.2205404 62.5602539,61.5551758 C62.2754232,61.8149414 61.9837565,61.9448242 61.6852539,61.9448242 C61.2750977,61.9448242 60.9389974,61.8018392 60.6769531,61.5158691 C60.4149089,61.2298991 60.2838867,60.8636068 60.2838867,60.4169922 C60.2838867,59.9179688 60.4416829,59.5163574 60.7572754,59.2121582 C61.0728678,58.907959 61.4892904,58.7558594 62.006543,58.7558594 C63.3258789,58.7558594 63.9855469,59.5488281 63.9855469,61.1347656 C63.9855469,61.8935547 63.7952799,62.4905599 63.4147461,62.9257812 C63.0342122,63.3610026 62.5135417,63.5786133 61.8527344,63.5786133 C60.9663411,63.5786133 60.5231445,63.2470703 60.5231445,62.5839844 C60.5231445,62.5224609 60.5265625,62.4358724 60.5333984,62.3242188 Z M62.1125,59.128418 C61.7798177,59.128418 61.6134766,59.5579427 61.6134766,60.4169922 C61.6134766,61.1165365 61.7593099,61.4663086 62.0509766,61.4663086 C62.4223958,61.4663086 62.6081055,61.090332 62.6081055,60.3383789 C62.6081055,59.5317383 62.4429036,59.128418 62.1125,59.128418 Z" id="Shape" fill="#186FB5" fill-rule="nonzero"></path>
    </g>
</svg>