<?xml version="1.0" encoding="UTF-8"?>
<svg width="64px" height="64px" viewBox="0 0 64 64" version="1.1" xmlns="http://www.w3.org/2000/svg" xmlns:xlink="http://www.w3.org/1999/xlink">
    <title>Demo_Games/AceyDeucy/FaceCards_5</title>
    <g id="Demo_Games/AceyDeucy/FaceCards_5" stroke="none" stroke-width="1" fill="none" fill-rule="evenodd">
        <path d="M8.59838867,0.669433594 L8.16674805,3.05175781 L2.79614258,3.05175781 L2.37280273,5.47558594 C3.28035482,4.86132813 4.22111003,4.55419922 5.19506836,4.55419922 C6.3737793,4.55419922 7.34082031,4.9000651 8.09619141,5.59179688 C8.8515625,6.28352865 9.22924805,7.16894531 9.22924805,8.24804688 C9.22924805,9.45442708 8.80452474,10.4131673 7.95507812,11.1242676 C7.10563151,11.8353678 5.95874023,12.190918 4.5144043,12.190918 C1.90242513,12.190918 0.596435547,11.2944336 0.596435547,9.50146484 C0.596435547,9.2413737 0.635172526,8.92041016 0.712646484,8.53857422 L2.18188477,8.23144531 C2.08780924,8.68522135 2.04077148,9.10026042 2.04077148,9.4765625 C2.04077148,10.6054688 2.64119466,11.1699219 3.84204102,11.1699219 C5.2808431,11.1699219 6.00024414,10.1489258 6.00024414,8.10693359 C6.00024414,6.66259766 5.38875326,5.94042969 4.16577148,5.94042969 C3.43530273,5.94042969 2.78507487,6.32779948 2.21508789,7.10253906 L0.903564453,6.78710937 L1.96606445,0.669433594 L8.59838867,0.669433594 Z" id="Path" fill="#186FB5" fill-rule="nonzero"></path>
        <path d="M44.7768555,18.3427734 L43.3041992,26.4707031 L24.980957,26.4707031 L23.5366211,34.7402344 C26.6329753,32.6445313 29.8426107,31.5966797 33.1655273,31.5966797 C37.1870117,31.5966797 40.4863281,32.7766927 43.0634766,35.1367188 C45.640625,37.4967448 46.9291992,40.5175781 46.9291992,44.1992188 C46.9291992,48.3151042 45.4801432,51.5861003 42.5820312,54.012207 C39.6839193,56.4383138 35.7709961,57.6513672 30.8432617,57.6513672 C21.9318034,57.6513672 17.4760742,54.5927734 17.4760742,48.4755859 C17.4760742,47.5882161 17.6082357,46.4931641 17.8725586,45.1904297 L22.8852539,44.1425781 C22.5642904,45.6907552 22.4038086,47.1067708 22.4038086,48.390625 C22.4038086,52.2421875 24.4523112,54.1679688 28.5493164,54.1679688 C33.4581706,54.1679688 35.9125977,50.6845703 35.9125977,43.7177734 C35.9125977,38.7900391 33.8263346,36.3261719 29.6538086,36.3261719 C27.1616211,36.3261719 24.9431966,37.6477865 22.9985352,40.2910156 L18.5239258,39.2148437 L22.1489258,18.3427734 L44.7768555,18.3427734 Z" id="Path" fill="#186FB5" fill-rule="nonzero"></path>
        <path d="M63.640332,58.8344727 L63.4625977,59.8154297 L61.2511719,59.8154297 L61.0768555,60.8134766 C61.4505534,60.5605469 61.8379232,60.434082 62.2389648,60.434082 C62.7243164,60.434082 63.1225098,60.5764974 63.4335449,60.8613281 C63.7445801,61.1461589 63.9000977,61.5107422 63.9000977,61.9550781 C63.9000977,62.4518229 63.7252116,62.8465983 63.3754395,63.1394043 C63.0256673,63.4322103 62.553418,63.5786133 61.9586914,63.5786133 C60.8831706,63.5786133 60.3454102,63.2094727 60.3454102,62.4711914 C60.3454102,62.3640951 60.3613607,62.2319336 60.3932617,62.074707 L60.9982422,61.9482422 C60.9595052,62.1350911 60.9401367,62.3059896 60.9401367,62.4609375 C60.9401367,62.9257812 61.1873698,63.1582031 61.6818359,63.1582031 C62.2742839,63.1582031 62.5705078,62.737793 62.5705078,61.8969727 C62.5705078,61.3022461 62.3187174,61.0048828 61.8151367,61.0048828 C61.5143555,61.0048828 61.2466146,61.164388 61.0119141,61.4833984 L60.471875,61.3535156 L60.909375,58.8344727 L63.640332,58.8344727 Z" id="Path" fill="#186FB5" fill-rule="nonzero"></path>
    </g>
</svg>