<?xml version="1.0" encoding="utf-8"?>
<!-- Generator: Adobe Illustrator 17.1.0, SVG Export Plug-In . SVG Version: 6.00 Build 0)  -->
<!DOCTYPE svg PUBLIC "-//W3C//DTD SVG 1.1//EN" "http://www.w3.org/Graphics/SVG/1.1/DTD/svg11.dtd">
<svg version="1.1" id="Layer_1" xmlns="http://www.w3.org/2000/svg" xmlns:xlink="http://www.w3.org/1999/xlink" x="0px" y="0px"
	 viewBox="0 0 64 64" enable-background="new 0 0 64 64" xml:space="preserve">
<g id="Queen">
	<g>
		<path fill="#186FB5" d="M32.2,60.8c-2.3,0-4.7-0.7-7.1-2.1c-2.2-1.3-4.4-3.1-6.3-5.4c-4-4.7-6.2-10.6-6.2-16.1h1
			c0,10.9,9.6,22.5,18.6,22.5s18.6-11.6,18.6-22.5h1c0,5.5-2.3,11.4-6.2,16.1c-1.9,2.2-4,4.1-6.3,5.4C36.9,60.2,34.5,60.8,32.2,60.8
			z"/>
	</g>
	<path fill="#186FB5" d="M35.5,47.2c-2.7,0-2.7,1.8-2.7,1.8s0-1.8-2.7-1.8s-5.4,0.9-5.4,0.9s4.5,3.6,8.1,3.6c3.6,0,8.1-3.6,8.1-3.6
		S38.2,47.2,35.5,47.2z"/>
	<path fill="#186FB5" d="M36.1,43.2c-1.6,1.6-3.2,1.7-3.2,1.7c0,0-1.6,0-3.2-1.7l-0.7,0.7c1.9,1.9,3.9,1.9,4,1.9c0.1,0,2,0,4-1.9
		L36.1,43.2z"/>
	<circle fill="#186FB5" cx="24.2" cy="39.6" r="2.3"/>
	<path fill="#186FB5" d="M30.1,34.7c0,0-2.7-0.9-6.3-0.9s-6.3,0.9-6.3,0.9s2.7-4.5,7.2-4.5S30.1,34.7,30.1,34.7z"/>
	<path fill="#186FB5" d="M35.5,34.7c0,0,2.7-0.9,6.3-0.9c3.6,0,6.3,0.9,6.3,0.9s-2.7-4.5-7.2-4.5S35.5,34.7,35.5,34.7z"/>
	<path fill="#186FB5" d="M51.7,18.5V5.9l-7.2,3.6l-2.7-5.4l-4.5,4.5l-5.4-5.4l-5.4,5.4L22,4.1l-2.7,5.4l-7.2-3.6v13.5c0,0,0,0,0,0
		l0.4,18.9c0,0,19.4-9,19.4-16.2c0,7.2,19.9,16.2,19.9,16.2L51.7,18.5z"/>
	<circle fill="#186FB5" cx="40.6" cy="39.6" r="2.3"/>
</g>
</svg>
