<?xml version="1.0" encoding="UTF-8"?>
<svg width="64px" height="64px" viewBox="0 0 64 64" version="1.1" xmlns="http://www.w3.org/2000/svg" xmlns:xlink="http://www.w3.org/1999/xlink">
    <title>Demo_Games/AceyDeucy/v3/FaceCards_6</title>
    <g id="Demo_Games/AceyDeucy/v3/FaceCards_6" stroke="none" stroke-width="1" fill="none" fill-rule="evenodd">
        <path d="M8.95117188,3.59960937 L7.44042969,3.84863281 C7.50683594,3.48339844 7.54003906,3.17073568 7.54003906,2.91064453 C7.54003906,1.89241536 7.05859375,1.38330078 6.09570312,1.38330078 C5.40397135,1.38330078 4.91837565,1.6558431 4.63891602,2.20092773 C4.35945638,2.74601237 4.15332031,3.81542969 4.02050781,5.40917969 C4.71223958,4.80598958 5.43164062,4.50439453 6.17871094,4.50439453 C7.15266927,4.50439453 7.96061198,4.84472656 8.60253906,5.52539062 C9.24446615,6.20605469 9.56542969,7.06380208 9.56542969,8.09863281 C9.56542969,9.34375 9.18774414,10.3398438 8.43237305,11.0869141 C7.67700195,11.8339844 6.67122396,12.2075195 5.41503906,12.2075195 C2.18326823,12.2075195 0.567382812,10.3149414 0.567382812,6.52978516 C0.567382812,4.68701172 1.0308431,3.21777344 1.95776367,2.12207031 C2.88468424,1.02636719 4.12841797,0.478515625 5.68896484,0.478515625 C7.88590495,0.478515625 8.984375,1.3445638 8.984375,3.07666016 C8.984375,3.22607422 8.97330729,3.40039062 8.95117188,3.59960937 Z M5.21582031,5.66650391 C4.34700521,5.66650391 3.91259766,6.54085286 3.91259766,8.28955078 C3.91259766,10.2983398 4.32210286,11.3027344 5.14111328,11.3027344 C5.93798828,11.3027344 6.33642578,10.2402344 6.33642578,8.11523438 C6.33642578,6.4827474 5.96289062,5.66650391 5.21582031,5.66650391 Z" id="Shape" fill="#186FB5" fill-rule="nonzero"></path>
        <path d="M45.9804688,25.6484375 L40.8261719,26.4980469 C41.0527344,25.2519531 41.1660156,24.1852214 41.1660156,23.2978516 C41.1660156,19.8238932 39.5234375,18.0869141 36.2382812,18.0869141 C33.8782552,18.0869141 32.2215169,19.0167643 31.2680664,20.8764648 C30.3146159,22.7361654 29.6113281,26.3847656 29.1582031,31.8222656 C31.5182292,29.7643229 33.9726562,28.7353516 36.5214844,28.7353516 C39.844401,28.7353516 42.6009115,29.8964844 44.7910156,32.21875 C46.9811198,34.5410156 48.0761719,37.4674479 48.0761719,40.9980469 C48.0761719,45.2460938 46.7875977,48.6445312 44.2104492,51.1933594 C41.6333008,53.7421875 38.2018229,55.0166016 33.9160156,55.0166016 C22.889974,55.0166016 17.3769531,48.5595703 17.3769531,35.6455078 C17.3769531,29.3583984 18.9581706,24.3457031 22.1206055,20.6074219 C25.2830404,16.8691406 29.5263672,15 34.8505859,15 C42.3460286,15 46.09375,17.9547526 46.09375,23.8642578 C46.09375,24.3740234 46.0559896,24.96875 45.9804688,25.6484375 Z M33.2363281,32.7001953 C30.2721354,32.7001953 28.7900391,35.6832682 28.7900391,41.6494141 C28.7900391,48.5029297 30.1871745,51.9296875 32.9814453,51.9296875 C35.7001953,51.9296875 37.0595703,48.3046875 37.0595703,41.0546875 C37.0595703,35.485026 35.7851562,32.7001953 33.2363281,32.7001953 Z" id="Shape" fill="#186FB5" fill-rule="nonzero"></path>
    </g>
</svg>