<?xml version="1.0" encoding="UTF-8"?>
<svg width="64px" height="64px" viewBox="0 0 64 64" version="1.1" xmlns="http://www.w3.org/2000/svg" xmlns:xlink="http://www.w3.org/1999/xlink">
    <title>Demo_Games/AceyDeucy/v3/FaceCards_8</title>
    <g id="Demo_Games/AceyDeucy/v3/FaceCards_8" stroke="none" stroke-width="1" fill="none" fill-rule="evenodd">
        <path d="M2.17358398,6.60449219 C1.16088867,5.89615885 0.654541016,5.00797526 0.654541016,3.93994141 C0.654541016,2.91617839 1.04882812,2.08886719 1.83740234,1.45800781 C2.62597656,0.827148438 3.66219076,0.51171875 4.94604492,0.51171875 C6.06941732,0.51171875 6.97835286,0.756591797 7.67285156,1.24633789 C8.36735026,1.73608398 8.71459961,2.3766276 8.71459961,3.16796875 C8.71459961,4.04785156 8.25252279,4.75341797 7.32836914,5.28466797 C8.83911133,6.08154297 9.59448242,7.1468099 9.59448242,8.48046875 C9.59448242,9.59277344 9.16145833,10.4934082 8.29541016,11.182373 C7.42936198,11.8713379 6.29630534,12.2158203 4.89624023,12.2158203 C3.60131836,12.2158203 2.52775065,11.904541 1.67553711,11.2819824 C0.823323568,10.6594238 0.397216797,9.87776693 0.397216797,8.93701172 C0.397216797,7.9132487 0.989339193,7.13574219 2.17358398,6.60449219 Z M2.97045898,7.07763672 C2.21785482,7.54248047 1.84155273,8.16227214 1.84155273,8.93701172 C1.84155273,9.59000651 2.13484701,10.1489258 2.72143555,10.6137695 C3.30802409,11.0786133 4.00805664,11.3110352 4.8215332,11.3110352 C5.45792643,11.3110352 5.99747721,11.1394857 6.44018555,10.7963867 C6.88289388,10.4532878 7.10424805,10.0382487 7.10424805,9.55126953 C7.10424805,8.75439453 6.47338867,8.16780599 5.21166992,7.79150391 C4.59187826,7.60888672 3.84480794,7.37093099 2.97045898,7.07763672 Z M6.55639648,4.93603516 C7.03230794,4.52099609 7.27026367,4.02848307 7.27026367,3.45849609 C7.27026367,2.09716797 6.47062174,1.41650391 4.87133789,1.41650391 C3.51554362,1.41650391 2.83764648,1.90625 2.83764648,2.88574219 C2.83764648,3.47786458 3.44637044,3.96484375 4.66381836,4.34667969 L5.95043945,4.74511719 C6.0777181,4.78938802 6.27970378,4.85302734 6.55639648,4.93603516 Z" id="Shape" fill="#186FB5" fill-rule="nonzero"></path>
        <path d="M22.8569336,35.7871094 C19.4018555,33.3704427 17.6743164,30.3401693 17.6743164,26.6962891 C17.6743164,23.2034505 19.0195312,20.3808594 21.7099609,18.2285156 C24.4003906,16.0761719 27.9357096,15 32.315918,15 C36.1486003,15 39.2496745,15.8354492 41.6191406,17.5063477 C43.9886068,19.1772461 45.1733398,21.3626302 45.1733398,24.0625 C45.1733398,27.0644531 43.5968424,29.4716797 40.4438477,31.2841797 C45.5981445,34.0029297 48.175293,37.6373698 48.175293,42.1875 C48.175293,45.9824219 46.6979167,49.0551758 43.7431641,51.4057617 C40.7884115,53.7563477 36.9226888,54.9316406 32.1459961,54.9316406 C27.7280273,54.9316406 24.0652669,53.8696289 21.1577148,51.7456055 C18.2501628,49.621582 16.7963867,46.9547526 16.7963867,43.7451172 C16.7963867,40.2522786 18.816569,37.5996094 22.8569336,35.7871094 Z M25.5756836,37.4013672 C23.0079753,38.9873047 21.7241211,41.101888 21.7241211,43.7451172 C21.7241211,45.9729818 22.7247721,47.8798828 24.7260742,49.4658203 C26.7273763,51.0517578 29.1157227,51.8447266 31.8911133,51.8447266 C34.0623372,51.8447266 35.9031576,51.2594401 37.4135742,50.0888672 C38.9239909,48.9182943 39.6791992,47.5022786 39.6791992,45.8408203 C39.6791992,43.1220703 37.5268555,41.1207682 33.222168,39.8369141 C31.1075846,39.2138672 28.5587565,38.4020182 25.5756836,37.4013672 Z M37.8100586,30.0947266 C39.4337565,28.6787109 40.2456055,26.9983724 40.2456055,25.0537109 C40.2456055,20.4091797 37.5174154,18.0869141 32.0610352,18.0869141 C27.4353841,18.0869141 25.1225586,19.7578125 25.1225586,23.0996094 C25.1225586,25.1197917 27.1993815,26.78125 31.3530273,28.0839844 L35.7426758,29.4433594 C36.1769206,29.594401 36.8660482,29.8115234 37.8100586,30.0947266 Z" id="Shape" fill="#186FB5" fill-rule="nonzero"></path>
    </g>
</svg>