<?xml version="1.0" encoding="UTF-8"?>
<svg width="64px" height="64px" viewBox="0 0 64 64" version="1.1" xmlns="http://www.w3.org/2000/svg" xmlns:xlink="http://www.w3.org/1999/xlink">
    <title>Demo_Games/AceyDeucy/v3/FaceCards_3</title>
    <g id="Demo_Games/AceyDeucy/v3/FaceCards_3" stroke="none" stroke-width="1" fill="none" fill-rule="evenodd">
        <path d="M0.704345703,8.26464844 L2.22338867,8.18164063 C2.09611003,8.6188151 2.02416992,9.00895182 2.00756836,9.35205078 C1.95222982,10.5639648 2.59138997,11.1699219 3.92504883,11.1699219 C5.23657227,11.1699219 5.89233398,10.4311523 5.89233398,8.95361328 C5.89233398,7.45947266 5.10929362,6.71240234 3.54321289,6.71240234 L2.64672852,6.72900391 L2.64672852,5.39257812 L3.29418945,5.40087891 C4.94327799,5.40087891 5.76782227,4.70361328 5.76782227,3.30908203 C5.76782227,2.09716797 5.18400065,1.49121094 4.01635742,1.49121094 C2.86531576,1.49121094 2.28979492,2.02522786 2.28979492,3.09326172 C2.28979492,3.35335286 2.32299805,3.65494792 2.3894043,3.99804688 L0.870361328,3.68261719 C0.870361328,1.54101562 2.11547852,0.470214844 4.60571289,0.470214844 C7.4777832,0.470214844 8.91381836,1.44970703 8.91381836,3.40869141 C8.91381836,4.69254557 8.10310872,5.5641276 6.48168945,6.0234375 C8.31892904,6.44401042 9.23754883,7.39583333 9.23754883,8.87890625 C9.23754883,11.0869141 7.70743815,12.190918 4.6472168,12.190918 C1.92456055,12.190918 0.563232422,11.277832 0.563232422,9.45166016 C0.563232422,9.1085612 0.610270182,8.71289062 0.704345703,8.26464844 Z" id="Path" fill="#186FB5" fill-rule="nonzero"></path>
        <path d="M17.8442383,41.5927734 L23.0268555,41.3095703 C22.5926107,42.8011068 22.347168,44.1321615 22.2905273,45.3027344 C22.1017253,49.4375 24.2823893,51.5048828 28.8325195,51.5048828 C33.3071289,51.5048828 35.5444336,48.984375 35.5444336,43.9433594 C35.5444336,38.8457031 32.8728841,36.296875 27.5297852,36.296875 L24.4711914,36.3535156 L24.4711914,31.7939453 L26.6801758,31.8222656 C32.3064779,31.8222656 35.1196289,29.4433594 35.1196289,24.6855469 C35.1196289,20.5507812 33.1277669,18.4833984 29.144043,18.4833984 C25.2169596,18.4833984 23.253418,20.3053385 23.253418,23.9492187 C23.253418,24.8365885 23.3666992,25.8655599 23.5932617,27.0361328 L18.4106445,25.9599609 C18.4106445,18.6533203 22.6586914,15 31.1547852,15 C40.9536133,15 45.8530273,18.3417969 45.8530273,25.0253906 C45.8530273,29.405599 43.0870768,32.3792318 37.5551758,33.9462891 C43.8234049,35.3811849 46.9575195,38.6285807 46.9575195,43.6884766 C46.9575195,51.2216797 41.7371419,54.9882812 31.2963867,54.9882812 C22.0073242,54.9882812 17.362793,51.8730469 17.362793,45.6425781 C17.362793,44.4720052 17.5232747,43.1220703 17.8442383,41.5927734 Z" id="Path" fill="#186FB5" fill-rule="nonzero"></path>
    </g>
</svg>