<?xml version="1.0" encoding="UTF-8"?>
<svg width="64px" height="64px" viewBox="0 0 64 64" version="1.1" xmlns="http://www.w3.org/2000/svg" xmlns:xlink="http://www.w3.org/1999/xlink">
    <title>Demo_Games/AceyDeucy/v3/FaceCards_2</title>
    <g id="Demo_Games/AceyDeucy/v3/FaceCards_2" stroke="none" stroke-width="1" fill="none" fill-rule="evenodd">
        <path d="M9.09228516,9.27734375 L9.09228516,12 L0.642089844,12 L0.642089844,10.3979492 C1.33382161,9.63427734 2.12792969,8.82080078 3.02441406,7.95751953 C5.03320313,6.03727214 6.03759766,4.56803385 6.03759766,3.54980469 C6.03759766,2.19401042 5.5008138,1.51611328 4.42724609,1.51611328 C3.12125651,1.51611328 2.46826172,2.3351237 2.46826172,3.97314453 C2.46826172,4.36051432 2.56233724,4.90559896 2.75048828,5.60839844 L0.999023438,5.19335937 C0.866210938,4.67317708 0.799804688,4.25537109 0.799804688,3.93994141 C0.799804688,1.64339193 2.21923828,0.495117188 5.05810547,0.495117188 C6.25895182,0.495117188 7.24674479,0.791178385 8.02148438,1.38330078 C8.79622396,1.97542318 9.18359375,2.7335612 9.18359375,3.65771484 C9.18359375,4.71468099 8.41715495,5.86572266 6.88427734,7.11083984 L5.85498047,7.94091797 L4.71777344,8.89550781 C4.64583333,8.95638021 4.46875,9.08365885 4.18652344,9.27734375 L9.09228516,9.27734375 Z" id="Path" fill="#186FB5" fill-rule="nonzero"></path>
        <path d="M46.4619141,44.9628906 L46.4619141,54.2519531 L17.6318359,54.2519531 L17.6318359,48.7861328 C19.991862,46.1806641 22.7011719,43.4052734 25.7597656,40.4599609 C32.6132813,33.9085286 36.0400391,28.8958333 36.0400391,25.421875 C36.0400391,20.796224 34.2086589,18.4833984 30.5458984,18.4833984 C26.0901693,18.4833984 23.8623047,21.2776693 23.8623047,26.8662109 C23.8623047,28.1878255 24.1832682,30.047526 24.8251953,32.4453125 L18.8496094,31.0292969 C18.3964844,29.2545573 18.1699219,27.8291016 18.1699219,26.7529297 C18.1699219,18.9176432 23.0126953,15 32.6982422,15 C36.7952474,15 40.1653646,16.0100911 42.8085938,18.0302734 C45.4518229,20.0504557 46.7734375,22.6370443 46.7734375,25.7900391 C46.7734375,29.3961589 44.1585286,33.3232422 38.9287109,37.5712891 L35.4169922,40.4033203 L31.5371094,43.6601562 C31.2916667,43.8678385 30.6875,44.3020833 29.7246094,44.9628906 L46.4619141,44.9628906 Z" id="Path" fill="#186FB5" fill-rule="nonzero"></path>
    </g>
</svg>