<?xml version="1.0" encoding="utf-8"?>
<!-- Generator: Adobe Illustrator 17.1.0, SVG Export Plug-In . SVG Version: 6.00 Build 0)  -->
<!DOCTYPE svg PUBLIC "-//W3C//DTD SVG 1.1//EN" "http://www.w3.org/Graphics/SVG/1.1/DTD/svg11.dtd">
<svg version="1.1" id="Layer_1" xmlns="http://www.w3.org/2000/svg" xmlns:xlink="http://www.w3.org/1999/xlink" x="0px" y="0px"
	 viewBox="0 0 64 64" enable-background="new 0 0 64 64" xml:space="preserve">
<g display="none">
	<path display="inline" d="M41.9,46.6c-0.2,0.8-1.1,1.2-1.9,1l-14.4-4.3c-0.8-0.2-1.2-1.1-1-1.9l5.6-18.8c0.2-0.8,1.1-1.2,1.9-1
		l14.4,4.3c0.8,0.2,1.2,1.1,1,1.9L41.9,46.6z"/>
</g>
<g display="none">
	<path display="inline" d="M41.3,42.8c0,0.8-0.7,1.5-1.6,1.4l-15.1-0.7c-0.8,0-1.5-0.7-1.4-1.6l0.9-19.6c0-0.8,0.7-1.5,1.6-1.4
		l15.1,0.7c0.8,0,1.5,0.7,1.4,1.6L41.3,42.8z"/>
</g>
<g display="none">
	<path display="inline" d="M35.6,19.9c-0.2-0.8-1-1.3-1.8-1.2l-14.7,3.2c-0.8,0.2-1.3,1-1.2,1.8l4.1,19.2c0.2,0.8,1,1.3,1.8,1.2
		l14.7-3.2c0.8-0.2,1.3-1,1.2-1.8L35.6,19.9z"/>
</g>
<g display="none">
	<path display="inline" d="M51.1,60.2c-0.5,1.6-2.2,2.6-3.8,2.1l-29.5-8.9c-1.6-0.5-2.6-2.2-2.1-3.8l11.5-38.4
		c0.5-1.6,2.2-2.6,3.8-2.1L60.5,18c1.6,0.5,2.6,2.2,2.1,3.8L51.1,60.2z"/>
</g>
<g display="none">
	<path display="inline" d="M49.7,52.5c-0.1,1.7-1.5,3-3.2,2.9L15.8,54c-1.7-0.1-3-1.5-2.9-3.2l1.9-40c0.1-1.7,1.5-3,3.2-2.9
		l30.8,1.4c1.7,0.1,3,1.5,2.9,3.2L49.7,52.5z"/>
</g>
<g display="none">
	<path display="inline" d="M38.3,5.7c-0.4-1.7-2-2.7-3.7-2.4L4.5,9.8c-1.7,0.4-2.7,2-2.4,3.7l8.4,39.1c0.4,1.7,2,2.7,3.7,2.4
		l30.1-6.5c1.7-0.4,2.7-2,2.4-3.7L38.3,5.7z"/>
</g>
<g>
	<rect x="-5.9" y="-2.3" display="none" fill="#ED1C24" width="72.6" height="67.3"/>
	<path fill="#FFFFFF" d="M61.8,18.5l-9.3-2.7l-1.7,36.8c-0.1,2.2-1.9,3.9-4.1,3.9l-0.2,0l-21.2-1l23.5,6.9c1.1,0.3,2.3-0.2,2.6-1.2
		l11.9-40.2C63.6,19.9,62.9,18.8,61.8,18.5z"/>
	<polygon fill="#FFFFFF" points="46.7,55.4 46.7,54.7 46.6,54.7 	"/>
	<path display="none" fill="#FFFFFF" d="M46.7,56.4c3.3,0,4-1,4.1-3.9l1.7-36.8l0.1-1.3L51,14l-1.1,38.9c0,1-1,1.9-2.2,1.8l-1,0v0.7
		l-0.1-0.7l-23.4-0.7l-3.9,0.8l1,0.3l5,0.2l21.2,1L46.7,56.4z"/>
	<path fill="#FFFFFF" d="M47.7,44.6c0.5,2.2-0.9,4.4-3.2,4.9l-21.3,4.6l23.4,0.7l0.1,0l1,0c1.2,0,2.2-0.8,2.2-1.8L51,14l0.1-2.9
		c0-1-0.9-1.9-2.1-2l-9-0.3L47.7,44.6z"/>
	<path display="none" fill="#FFFFFF" d="M23.3,54.1l21.3-4.6c3-0.6,3.9-1.7,3.2-4.9L40,8.9l-0.2-1.1l-1.3-0.1l8.6,37.9
		c0.2,1.1-0.5,2.2-1.6,2.4L15.2,55l3.1,0.1l1-0.2L23.3,54.1z"/>
	<path fill="#FFFFFF" d="M45.5,48.1c1.2-0.3,1.9-1.3,1.6-2.4L38.5,7.8l-1.1-5C37.1,1.7,36,1,34.8,1.3L2.7,8.6C1.5,8.9,0.8,10,1,11
		l9.8,42.9c0.2,1.1,1.4,1.7,2.5,1.5l1.8-0.4L45.5,48.1z"/>
</g>
</svg>
