<?xml version="1.0" encoding="utf-8"?>
<!-- Generator: Adobe Illustrator 17.1.0, SVG Export Plug-In . SVG Version: 6.00 Build 0)  -->
<!DOCTYPE svg PUBLIC "-//W3C//DTD SVG 1.1//EN" "http://www.w3.org/Graphics/SVG/1.1/DTD/svg11.dtd">
<svg version="1.1" id="Layer_1" xmlns="http://www.w3.org/2000/svg" xmlns:xlink="http://www.w3.org/1999/xlink" x="0px" y="0px"
	 viewBox="0 0 32 32" enable-background="new 0 0 32 32" xml:space="preserve">
<g>
	<path fill="#FFFFFF" d="M30.9,7.3c0,0.7-0.6,1.2-1.2,1.2H2.3C1.6,8.5,1.1,8,1.1,7.3V4.8c0-0.7,0.6-1.2,1.2-1.2h27.4
		c0.7,0,1.2,0.6,1.2,1.2V7.3z M30.9,17.2c0,0.7-0.6,1.2-1.2,1.2H2.3c-0.7,0-1.2-0.6-1.2-1.2v-2.5c0-0.7,0.6-1.2,1.2-1.2h27.4
		c0.7,0,1.2,0.6,1.2,1.2V17.2z M30.9,27.2c0,0.7-0.6,1.2-1.2,1.2H2.3c-0.7,0-1.2-0.6-1.2-1.2v-2.5c0-0.7,0.6-1.2,1.2-1.2h27.4
		c0.7,0,1.2,0.6,1.2,1.2V27.2z"/>
</g>
</svg>
