<?xml version="1.0" encoding="utf-8"?>
<!-- Generator: Adobe Illustrator 17.1.0, SVG Export Plug-In . SVG Version: 6.00 Build 0)  -->
<!DOCTYPE svg PUBLIC "-//W3C//DTD SVG 1.1//EN" "http://www.w3.org/Graphics/SVG/1.1/DTD/svg11.dtd">
<svg version="1.1" id="Layer_1" xmlns="http://www.w3.org/2000/svg" xmlns:xlink="http://www.w3.org/1999/xlink" x="0px" y="0px"
	 viewBox="0 0 64 64" enable-background="new 0 0 64 64" xml:space="preserve">
<g>
	<path fill="#FFFFFF" d="M2,56.6V7.4c0-1.2,0.7-1.5,1.5-0.6l23.8,23.8c0.2,0.2,0.3,0.4,0.4,0.6V7.4c0-1.2,0.7-1.5,1.5-0.6L53,30.5
		c0.2,0.2,0.3,0.4,0.4,0.6V8.4c0-1.2,1-2.1,2.1-2.1h4.3c1.2,0,2.1,1,2.1,2.1v47.1c0,1.2-1,2.1-2.1,2.1h-4.3c-1.2,0-2.1-1-2.1-2.1
		V32.9c-0.1,0.2-0.2,0.4-0.4,0.6L29.2,57.3c-0.8,0.8-1.5,0.5-1.5-0.6V32.9c-0.1,0.2-0.2,0.4-0.4,0.6L3.5,57.3
		C2.7,58.1,2,57.8,2,56.6z"/>
</g>
</svg>
